<svg width="77" height="11" viewBox="0 0 77 11" fill="none" xmlns="http://www.w3.org/2000/svg">
<path d="M0.776173 3.24506V2.53021H1.12774C1.79961 2.53021 2.25664 2.42865 2.49883 2.22552C2.74102 2.0224 2.86211 1.72943 2.86211 1.34662V1.07709H3.65899V10.0771H2.69805V3.24506H0.776173ZM7.80649 3.16302C7.97836 2.48334 8.28695 1.94818 8.73227 1.55756C9.18539 1.16693 9.77524 0.971619 10.5018 0.971619C11.2518 0.971619 11.8651 1.18646 12.3416 1.61615C12.8182 2.04584 13.0565 2.63959 13.0565 3.3974C13.0565 4.2724 12.6034 5.14349 11.6971 6.01068C10.6502 7.01068 9.99008 7.67084 9.71664 7.99115C9.36508 8.40521 9.11899 8.80365 8.97836 9.18646H13.0565V9.9599H7.85336C7.85336 9.66302 7.91586 9.35443 8.04086 9.03412C8.17367 8.70599 8.3143 8.42474 8.46274 8.19037C8.61117 7.95599 8.85727 7.65521 9.20102 7.28802C9.54477 6.91302 9.80649 6.63959 9.98617 6.46771C10.1737 6.28802 10.494 5.98724 10.9471 5.56537C11.7127 4.83881 12.0955 4.11224 12.0955 3.38568C12.0955 2.86224 11.9471 2.45599 11.6502 2.16693C11.3612 1.87787 10.9705 1.73334 10.4784 1.73334C9.99399 1.73334 9.59555 1.88177 9.28305 2.17865C8.97055 2.47552 8.7518 2.87787 8.6268 3.38568L7.80649 3.16302ZM16.1493 8.97552V7.58099H17.6259V8.97552H16.1493ZM16.1493 4.3349V2.94037H17.6259V4.3349H16.1493ZM21.457 5.57709C21.457 6.74896 21.6054 7.67865 21.9023 8.36615C22.1991 9.05365 22.6523 9.3974 23.2616 9.3974C23.5898 9.3974 23.871 9.29584 24.1054 9.09271C24.3398 8.88177 24.5195 8.59271 24.6445 8.22552C24.7773 7.85834 24.871 7.4599 24.9257 7.03021C24.9882 6.59271 25.0195 6.10834 25.0195 5.57709C25.0195 4.40521 24.871 3.47162 24.5741 2.77631C24.2851 2.08099 23.8398 1.73334 23.2382 1.73334C22.6445 1.73334 22.1991 2.07709 21.9023 2.76459C21.6054 3.45209 21.457 4.38959 21.457 5.57709ZM20.496 5.57709C20.496 3.98334 20.7577 2.81927 21.2812 2.0849C21.8046 1.34271 22.457 0.971619 23.2382 0.971619C24.0976 0.971619 24.7695 1.36615 25.2538 2.15521C25.7382 2.94427 25.9804 4.0849 25.9804 5.57709C25.9804 6.46771 25.8866 7.24896 25.6991 7.92084C25.5195 8.59271 25.2226 9.13568 24.8085 9.54974C24.3945 9.96381 23.8788 10.1708 23.2616 10.1708C22.4726 10.1708 21.8124 9.79193 21.2812 9.03412C20.7577 8.27631 20.496 7.12396 20.496 5.57709ZM29.0849 5.57709C29.0849 6.74896 29.2334 7.67865 29.5302 8.36615C29.8271 9.05365 30.2802 9.3974 30.8896 9.3974C31.2177 9.3974 31.499 9.29584 31.7334 9.09271C31.9677 8.88177 32.1474 8.59271 32.2724 8.22552C32.4052 7.85834 32.499 7.4599 32.5537 7.03021C32.6162 6.59271 32.6474 6.10834 32.6474 5.57709C32.6474 4.40521 32.499 3.47162 32.2021 2.77631C31.913 2.08099 31.4677 1.73334 30.8662 1.73334C30.2724 1.73334 29.8271 2.07709 29.5302 2.76459C29.2334 3.45209 29.0849 4.38959 29.0849 5.57709ZM28.124 5.57709C28.124 3.98334 28.3857 2.81927 28.9091 2.0849C29.4326 1.34271 30.0849 0.971619 30.8662 0.971619C31.7255 0.971619 32.3974 1.36615 32.8818 2.15521C33.3662 2.94427 33.6084 4.0849 33.6084 5.57709C33.6084 6.46771 33.5146 7.24896 33.3271 7.92084C33.1474 8.59271 32.8505 9.13568 32.4365 9.54974C32.0224 9.96381 31.5068 10.1708 30.8896 10.1708C30.1005 10.1708 29.4404 9.79193 28.9091 9.03412C28.3857 8.27631 28.124 7.12396 28.124 5.57709ZM35.7285 6.01068V5.21381H41.2598V6.01068H35.7285ZM43.4034 3.16302C43.5752 2.48334 43.8838 1.94818 44.3291 1.55756C44.7823 1.16693 45.3721 0.971619 46.0987 0.971619C46.8487 0.971619 47.462 1.18646 47.9385 1.61615C48.4151 2.04584 48.6534 2.63959 48.6534 3.3974C48.6534 4.2724 48.2002 5.14349 47.294 6.01068C46.2471 7.01068 45.587 7.67084 45.3135 7.99115C44.962 8.40521 44.7159 8.80365 44.5752 9.18646H48.6534V9.9599H43.4502C43.4502 9.66302 43.5127 9.35443 43.6377 9.03412C43.7705 8.70599 43.9112 8.42474 44.0596 8.19037C44.208 7.95599 44.4541 7.65521 44.7979 7.28802C45.1416 6.91302 45.4034 6.63959 45.583 6.46771C45.7705 6.28802 46.0909 5.98724 46.544 5.56537C47.3096 4.83881 47.6924 4.11224 47.6924 3.38568C47.6924 2.86224 47.544 2.45599 47.2471 2.16693C46.958 1.87787 46.5674 1.73334 46.0752 1.73334C45.5909 1.73334 45.1924 1.88177 44.8799 2.17865C44.5674 2.47552 44.3487 2.87787 44.2237 3.38568L43.4034 3.16302ZM50.8673 8.44818L51.6407 8.14349C52.0782 8.97943 52.7345 9.3974 53.6095 9.3974C54.1563 9.3974 54.6134 9.23724 54.9805 8.91693C55.3477 8.59662 55.5313 8.13177 55.5313 7.5224C55.5313 6.95209 55.3282 6.51068 54.922 6.19818C54.5157 5.87787 54.0235 5.71771 53.4454 5.71771C53.1563 5.71771 52.922 5.72552 52.7423 5.74115V4.96771C52.9063 4.98334 53.1251 4.99115 53.3985 4.99115C53.9141 4.99115 54.3399 4.84271 54.6759 4.54584C55.0118 4.24115 55.1798 3.83099 55.1798 3.31537C55.1798 2.85443 55.0274 2.47552 54.7227 2.17865C54.4259 1.88177 54.0391 1.73334 53.5626 1.73334C52.8126 1.73334 52.2501 2.17865 51.8751 3.06927L51.1016 2.81146C51.2813 2.2724 51.5821 1.83099 52.004 1.48724C52.4259 1.14349 52.961 0.971619 53.6095 0.971619C54.3829 0.971619 54.9962 1.18646 55.4493 1.61615C55.9102 2.04584 56.1407 2.5849 56.1407 3.23334C56.1407 3.74115 56.004 4.17474 55.7305 4.53412C55.4571 4.89349 55.1251 5.1474 54.7345 5.29584C55.2032 5.42084 55.6134 5.67084 55.9649 6.04584C56.3165 6.42084 56.4923 6.91302 56.4923 7.5224C56.4923 8.36615 56.2266 9.01849 55.6954 9.47943C55.172 9.94037 54.4766 10.1708 53.6095 10.1708C52.9298 10.1708 52.3516 10.0068 51.8751 9.67865C51.4063 9.35052 51.0704 8.94037 50.8673 8.44818ZM59.3741 8.97552V7.58099H60.8507V8.97552H59.3741ZM59.3741 4.3349V2.94037H60.8507V4.3349H59.3741ZM64.6818 5.57709C64.6818 6.74896 64.8302 7.67865 65.1271 8.36615C65.424 9.05365 65.8771 9.3974 66.4865 9.3974C66.8146 9.3974 67.0959 9.29584 67.3302 9.09271C67.5646 8.88177 67.7443 8.59271 67.8693 8.22552C68.0021 7.85834 68.0959 7.4599 68.1505 7.03021C68.213 6.59271 68.2443 6.10834 68.2443 5.57709C68.2443 4.40521 68.0959 3.47162 67.799 2.77631C67.5099 2.08099 67.0646 1.73334 66.463 1.73334C65.8693 1.73334 65.424 2.07709 65.1271 2.76459C64.8302 3.45209 64.6818 4.38959 64.6818 5.57709ZM63.7209 5.57709C63.7209 3.98334 63.9826 2.81927 64.506 2.0849C65.0295 1.34271 65.6818 0.971619 66.463 0.971619C67.3224 0.971619 67.9943 1.36615 68.4787 2.15521C68.963 2.94427 69.2052 4.0849 69.2052 5.57709C69.2052 6.46771 69.1115 7.24896 68.924 7.92084C68.7443 8.59271 68.4474 9.13568 68.0334 9.54974C67.6193 9.96381 67.1037 10.1708 66.4865 10.1708C65.6974 10.1708 65.0373 9.79193 64.506 9.03412C63.9826 8.27631 63.7209 7.12396 63.7209 5.57709ZM72.3098 5.57709C72.3098 6.74896 72.4582 7.67865 72.7551 8.36615C73.052 9.05365 73.5051 9.3974 74.1145 9.3974C74.4426 9.3974 74.7238 9.29584 74.9582 9.09271C75.1926 8.88177 75.3723 8.59271 75.4973 8.22552C75.6301 7.85834 75.7238 7.4599 75.7785 7.03021C75.841 6.59271 75.8723 6.10834 75.8723 5.57709C75.8723 4.40521 75.7238 3.47162 75.427 2.77631C75.1379 2.08099 74.6926 1.73334 74.091 1.73334C73.4973 1.73334 73.052 2.07709 72.7551 2.76459C72.4582 3.45209 72.3098 4.38959 72.3098 5.57709ZM71.3488 5.57709C71.3488 3.98334 71.6105 2.81927 72.134 2.0849C72.6574 1.34271 73.3098 0.971619 74.091 0.971619C74.9504 0.971619 75.6223 1.36615 76.1066 2.15521C76.591 2.94427 76.8332 4.0849 76.8332 5.57709C76.8332 6.46771 76.7395 7.24896 76.552 7.92084C76.3723 8.59271 76.0754 9.13568 75.6613 9.54974C75.2473 9.96381 74.7316 10.1708 74.1145 10.1708C73.3254 10.1708 72.6652 9.79193 72.134 9.03412C71.6105 8.27631 71.3488 7.12396 71.3488 5.57709Z" fill="white"/>
</svg>
