<svg width="88" height="97" viewBox="0 0 88 97" fill="none" xmlns="http://www.w3.org/2000/svg">
<circle cx="44" cy="51" r="44" fill="#F4F0E6"/>
<path d="M63.6076 64.5304C60.8585 65.4064 47.1132 66.8079 41.5566 58.4569L44.2472 57.6394C44.6566 57.5226 45.1246 57.6394 45.417 58.0482C46.7038 59.8585 51.2661 64.6472 63.4906 63.9464L63.6076 64.5304Z" fill="#E2505E"/>
<path d="M63.4903 63.8879C61.8526 64.0047 60.3319 64.0047 58.9281 63.8879V64.4719C56.7639 64.7639 47.8149 64.0047 41.9658 58.9824C47.6979 66.691 60.9168 65.2895 63.6073 64.4719L63.4903 63.8879Z" fill="#C93A4F"/>
<path d="M42.9602 49.2883H39.2168V58.1065H42.9602V49.2883Z" fill="#FABE82"/>
<path d="M48.0489 76.327C48.0489 76.327 48.9263 64.7057 45.8848 58.8074C44.5395 56.1795 40.6791 55.8291 38.9829 56.1795C33.4848 57.4059 35.4735 74.9838 36.2338 78.8965C36.5848 80.8237 39.1584 85.262 33.7188 90.985L34.5376 92.153C34.5376 92.153 39.2169 88.4155 39.3338 84.4444C39.4508 80.4149 42.3754 79.3637 44.4225 78.9549C46.4697 78.4877 51.4999 80.8237 54.5414 85.846L55.8867 85.1452C55.8867 85.0868 52.4357 78.8381 48.0489 76.327Z" fill="#E2505E"/>
<path d="M48.8679 76.3853L36 77.378L36.1755 78.4876L48.8679 77.2028V76.3853Z" fill="#C93A4F"/>
<path d="M35.4739 72.531C35.5909 72.5894 37.6965 62.0192 37.2871 57.4058C35.1229 60.2089 35.006 67.1583 35.4739 72.531Z" fill="#C93A4F"/>
<path d="M47.5811 75.2173C47.7566 75.3341 47.932 75.4508 48.1075 75.5676C48.2245 73.5821 48.3415 68.0342 47.3471 63.2456C47.2301 62.5448 47.5811 75.2173 47.5811 75.2173Z" fill="#C93A4F"/>
<path d="M55.3019 84.0938L54.0736 84.7362C51.0906 79.7139 46.3528 77.9035 44.3056 78.3123C42.2585 78.7795 38.983 79.3051 38.866 83.3346C38.749 87.3641 34.0698 91.0432 34.0698 91.0432L33.8943 90.8096C33.8358 90.868 33.8358 90.9264 33.7773 90.9264L34.5962 92.0944C34.5962 92.0944 39.2755 88.3569 39.3924 84.3858C39.4509 80.9986 42.0245 79.1883 45.066 79.2467C48.1075 79.2467 51.7339 81.057 54.6 85.7873L55.9453 85.0865C55.8868 85.0865 55.6528 84.7361 55.3019 84.0938Z" fill="#C93A4F"/>
<path d="M34.8307 86.313C34.8307 86.313 37.9891 84.561 40.5627 84.9698C43.1363 85.3786 31.3212 95.5399 31.3212 95.5399L33.0759 96.8831L28.5137 96.9999L34.8307 86.313Z" fill="#FFCD5C"/>
<path d="M40.5622 84.9116C39.8603 84.7948 39.1 84.8532 38.3981 84.97C36.9943 88.6491 34.2452 92.2114 29.332 96.9417L33.1339 96.8249L31.3792 95.4817C31.3207 95.4817 43.1358 85.3204 40.5622 84.9116Z" fill="#E8B246"/>
<path d="M51.5 82.9844C51.5 82.9844 51.8509 81.2908 55.2434 82.342C58.3434 83.2764 59.9811 95.3065 59.9811 95.3065L64.0755 96.7081L58.4604 96.8249L51.5 82.9844Z" fill="#FFCD5C"/>
<path d="M59.689 96.7663L64.1343 96.6495L60.04 95.248C60.04 95.248 58.4022 83.2179 55.3022 82.2835C55.1852 82.2251 55.1267 82.2251 55.0098 82.2251C57.0569 86.8386 58.9871 93.0872 59.689 96.7663Z" fill="#E8B246"/>
<path d="M25.1209 73.115C24.8285 71.0126 26.6417 58.3401 38.8077 56.2378L39.5681 59.2745C39.5681 59.2745 28.6304 60.9097 25.7058 73.2318L25.1209 73.115Z" fill="#E2505E"/>
<path d="M26.1735 69.2023C25.6471 71.1295 25.0622 72.4726 25.1792 73.115L25.8226 73.1734C27.9867 64.0632 34.4792 60.7929 37.7546 59.6833C34.4792 60.5009 29.6244 62.9537 26.1735 69.2023Z" fill="#C93A4F"/>
<path d="M48.8097 74.7502L35.5908 76.4438L35.9418 77.8454L48.9852 76.7358L48.8097 74.7502Z" fill="#FFCD5C"/>
<path d="M25.8814 72.8813C25.8814 72.8813 28.221 75.0421 27.5776 75.6845C26.9342 76.3269 24.0681 76.6772 24.8285 73.3485C24.9455 72.9397 25.8814 72.8813 25.8814 72.8813Z" fill="#FFCD5C"/>
<path d="M25.706 73.5822C25.706 73.5822 27.6947 70.6623 28.806 70.8959C28.806 70.8959 25.1796 68.0927 22.8984 69.0271L24.9456 73.4654L25.706 73.5822Z" fill="#FFCD5C"/>
<path d="M38.5146 56.2962L40.7373 58.0482L38.8071 58.3986L43.7203 65.1728L44.9486 59.8586L43.7788 58.9826L44.4222 56.997C44.4222 56.997 41.6731 55.0699 38.5146 56.2962Z" fill="#FFCD5C"/>
<path d="M40.0361 62.1945L42.5512 60.793L45.5927 62.6617L43.721 67.9176L40.0361 62.1945Z" fill="#FFCD5C"/>
<path d="M45.7423 74.4492L41.502 74.9475L41.8712 78.0793L46.1115 77.5809L45.7423 74.4492Z" fill="#FFCD5C"/>
<path d="M44.6305 75.3547L42.8877 75.5581L43.0439 76.8921L44.7867 76.6887L44.6305 75.3547Z" fill="#E2505E"/>
<path opacity="0.5" d="M46.4118 59.1577C45.9438 58.6905 45.6514 58.2817 45.4174 57.9897C45.3004 57.8145 45.1835 57.7561 45.008 57.6393C44.8325 57.4641 44.5986 57.2889 44.3646 57.1137L44.4231 56.9385C44.4231 56.9385 43.8382 56.5297 42.9023 56.1794V51.4491C42.025 51.3907 41.1476 51.3323 40.2118 51.3323C39.8608 51.3323 39.5099 51.3323 39.2174 51.3323V56.0626C39.0419 56.121 38.808 56.1794 38.6325 56.2378C36.1174 56.7049 34.0703 57.6393 32.374 58.8073C34.5382 59.3329 37.2872 59.6249 40.2118 59.6249C42.4344 59.6249 44.5986 59.4497 46.4118 59.1577Z" fill="#66493D"/>
<path d="M28.6887 8.29257C32.1396 3.73749 5.52642 -12.3221 5 18.2787C11.434 9.46055 22.4302 16.5852 28.6887 8.29257Z" fill="#FFD683"/>
<path d="M28.6891 8.29248C29.3325 7.4749 27.1683 1.45985 17.108 5.60615C10.2646 8.40928 5.58532 13.7235 5.23438 17.9866C11.6683 9.57725 22.4891 16.5267 28.6891 8.29248Z" fill="#F7C872"/>
<path d="M31.7884 8.58447C31.262 7.2997 29.6242 6.77412 28.162 7.4165C26.6997 8.00048 25.9393 9.51885 26.4657 10.8036C26.9921 12.0884 28.6299 12.614 30.0921 11.9716C31.6129 11.3876 32.3733 9.86924 31.7884 8.58447Z" fill="#B72E42"/>
<path d="M21.7283 33.2288L27.4604 41.0542L24.0679 44.4413L21.6113 42.9813L24.0094 40.7038L21.7283 33.2288Z" fill="#B72E42"/>
<path d="M19.2129 31.5352L19.5053 43.4485L24.0676 44.4412L19.2129 31.5352Z" fill="#E2505E"/>
<path d="M20.0903 34.6887L17.9262 44.1493L13.1299 43.7405L12.6035 40.9958L15.9375 41.3462L20.0903 34.6887Z" fill="#B72E42"/>
<path d="M19.7393 31.7104L10.9072 39.7111L13.1299 43.7406L19.7393 31.7104Z" fill="#E2505E"/>
<path d="M23.9505 45.1421C17.6921 39.419 11.0826 20.0307 27.8109 10.3949C44.5392 0.759177 77.2939 19.6803 60.0977 41.1126C42.96 62.4864 23.9505 45.1421 23.9505 45.1421Z" fill="#FFD683"/>
<path d="M37.8717 53.4347C46.2359 55.7123 59.3962 51.6828 61.8528 39.1271C64.3094 26.5714 60.8 19.0964 47.0547 17.1108C33.3094 15.1837 23.0151 20.1475 21.5528 30.0753C20.0321 40.0614 25.1208 50.0476 37.8717 53.4347Z" fill="#FABE82"/>
<mask id="mask0_344_1486" style="mask-type:alpha" maskUnits="userSpaceOnUse" x="21" y="16" width="42" height="39">
<path d="M37.8717 53.4347C46.2359 55.7123 59.3962 51.6828 61.8528 39.1271C64.3094 26.5714 60.8 19.0964 47.0547 17.1108C33.3094 15.1837 23.0151 20.1475 21.5528 30.0753C20.0321 40.0614 25.1208 50.0476 37.8717 53.4347Z" fill="url(#paint0_linear_344_1486)"/>
</mask>
<g mask="url(#mask0_344_1486)">
<path opacity="0.3" d="M37.8717 53.4347C46.2359 55.7123 59.3962 51.6828 61.8528 39.1271C64.3094 26.5714 60.8 19.0964 47.0547 17.1108C33.3094 15.1837 23.0151 20.1475 21.5528 30.0753C20.0321 40.0614 25.1208 50.0476 37.8717 53.4347Z" fill="url(#paint1_linear_344_1486)"/>
<path d="M62.3211 33.2289L22.8984 29.9001L23.2494 40.6455L62.672 43.9742L62.3211 33.2289Z" fill="#E2505E"/>
<path d="M59.045 37.9005C59.045 39.9444 58.6356 41.8716 57.9922 43.6235L62.6714 44.0323L62.3205 33.2286L58.2846 32.8782C58.8111 34.4549 59.045 36.1485 59.045 37.9005Z" fill="#CE4155"/>
<path d="M27.1681 36.2654C27.1681 34.163 27.5776 32.1191 28.338 30.3087L22.8398 29.8416L23.1908 40.5869L27.87 40.9957C27.4606 39.5357 27.1681 37.959 27.1681 36.2654Z" fill="#CE4155"/>
<path d="M54.775 42.3974C55.9448 41.1126 56.0033 33.696 52.026 33.404C46.9958 32.9952 45.1826 38.8935 46.0014 41.6966L54.775 42.3974Z" fill="#A82A3D"/>
<path d="M40.2697 41.1709C41.2055 39.8862 41.147 33.1119 36.1168 32.1192C31.2621 31.1264 30.3263 37.667 31.6131 40.5286L40.2697 41.1709Z" fill="#A82A3D"/>
<path d="M27.9279 55.3618C25.2373 48.0036 19.8562 30.8345 33.192 17.2276L29.5071 13.9573C22.3713 20.6147 12.9543 29.0241 27.9279 55.3618Z" fill="#FFD683"/>
<path d="M56.1209 56.1795C59.3379 48.9965 66.0643 32.1193 53.2549 17.8116L57.2907 14.7749C64.1926 21.7827 73.2587 30.6593 56.1209 56.1795Z" fill="#FFD683"/>
<path d="M31.6717 40.4117C30.7943 39.0685 31.7887 32.2359 35.4736 32.5279C39.1585 32.8199 41.4396 38.5429 40.2698 41.1125L31.6717 40.4117Z" fill="#FFECDE"/>
<path d="M54.2492 42.339C55.3021 41.1126 55.419 34.2216 51.7926 33.988C48.1662 33.696 45.1247 39.0687 45.8851 41.755L54.2492 42.339Z" fill="#FFECDE"/>
<path d="M38.457 44.8501L47.64 45.2589C47.64 45.2589 41.908 55.0115 38.457 44.8501Z" fill="#4C311B"/>
<path d="M39.2754 45.2004L40.1527 47.186L44.715 47.5948L46.7622 45.434L39.2754 45.2004Z" fill="#FFEBDC"/>
<path d="M44.8318 22.4251L25.8809 22.0747L27.1092 20.9067L45.0073 20.0308L44.8318 22.4251Z" fill="#A06950"/>
<path d="M47.1719 22.6001L61.9115 24.5273L61.2681 23.2425L47.2889 20.2642L47.1719 22.6001Z" fill="#A06950"/>
<path d="M44.0137 21.3737L46.0608 26.2792L48.6344 22.0161L46.5873 17.9282L44.0137 21.3737Z" fill="#E2505E"/>
<path d="M44.7734 21.0234L45.8848 23.4761L46.8791 21.3154L46.4112 18.7458L44.7734 21.0234Z" fill="#FF8F9F"/>
<path d="M51.7928 39.5357C51.9683 38.3093 51.3834 37.2581 50.4475 37.083C49.5702 36.9662 48.6928 37.8421 48.5174 39.0685C48.3419 40.2949 48.9268 41.346 49.8626 41.5212C50.7985 41.638 51.6759 40.7621 51.7928 39.5357Z" fill="#542B1B"/>
<path d="M38.2225 38.1341C38.164 36.9078 37.4037 35.9734 36.4678 35.9734C35.532 36.0318 34.8886 37.0246 34.947 38.2509C35.0055 39.4773 35.7659 40.4701 36.7018 40.4117C37.5791 40.4117 38.281 39.3605 38.2225 38.1341Z" fill="#542B1B"/>
<path d="M37.6375 37.6086C37.6375 37.1414 37.345 36.791 36.9941 36.791C36.6431 36.791 36.4092 37.1998 36.4092 37.6086C36.4092 38.0758 36.7016 38.4262 37.0526 38.4262C37.4035 38.4262 37.6375 38.0758 37.6375 37.6086Z" fill="#B56C55"/>
<path d="M51.4412 38.7182C51.4412 38.251 51.1487 37.9006 50.7978 37.9006C50.4469 37.9006 50.2129 38.3094 50.2129 38.7182C50.2129 39.1854 50.5053 39.5358 50.8563 39.5358C51.2072 39.5942 51.4412 39.1854 51.4412 38.7182Z" fill="#B56C55"/>
<path d="M49.8621 30.2505C49.8621 30.2505 54.1904 31.7689 54.7753 31.5937L55.1847 31.1265C55.1847 31.1265 50.5055 29.1993 49.7451 28.4985L49.8621 30.2505Z" fill="#FFD683"/>
<path d="M37.9301 29.3161C37.9301 29.3161 33.4263 29.7833 32.8999 29.5497L32.6074 29.0241C32.6074 29.0241 37.5206 28.2065 38.398 27.6809L37.9301 29.3161Z" fill="#FFD683"/>
<path d="M44.5985 42.8646C44.5985 42.339 43.8381 41.8718 42.9023 41.8718C41.9664 41.8718 41.2061 42.2806 41.2061 42.8646C41.2061 43.3902 41.9664 43.8574 42.9023 43.8574C43.8381 43.799 44.5985 43.3902 44.5985 42.8646Z" fill="#EA9C68"/>
<path d="M45.0077 42.4557C45.0077 41.9301 44.2473 41.4629 43.3115 41.4629C42.3756 41.4629 41.6152 41.8717 41.6152 42.4557C41.6152 42.9813 42.3756 43.4484 43.3115 43.4484C44.2473 43.4484 45.0077 42.9813 45.0077 42.4557Z" fill="#FABE82"/>
<path d="M38.5734 45.3172C38.8318 45.3172 39.0413 45.1604 39.0413 44.9668C39.0413 44.7733 38.8318 44.6165 38.5734 44.6165C38.315 44.6165 38.1055 44.7733 38.1055 44.9668C38.1055 45.1604 38.315 45.3172 38.5734 45.3172Z" fill="#4C311B"/>
<path d="M47.6398 45.8429C47.8982 45.8429 48.1077 45.686 48.1077 45.4925C48.1077 45.299 47.8982 45.1421 47.6398 45.1421C47.3814 45.1421 47.1719 45.299 47.1719 45.4925C47.1719 45.686 47.3814 45.8429 47.6398 45.8429Z" fill="#4C311B"/>
<path d="M18.8037 28.9073C19.0962 22.6586 21.3188 11.5629 33.6018 9.92773C33.6018 9.92773 24.5358 13.3149 18.8037 28.9073Z" fill="#FFECB0"/>
<path d="M21.6113 27.6808C21.8453 22.8338 23.6 14.1908 33.134 12.906C33.134 12.906 26.1151 15.5339 21.6113 27.6808Z" fill="#FFECB0"/>
<path opacity="0.5" d="M35.5318 43.5652C35.5903 42.9228 34.4205 42.3388 32.9582 42.2804C31.4959 42.222 30.2676 42.6308 30.2091 43.2732C30.1506 43.9156 31.3205 44.4412 32.7827 44.558C34.245 44.6164 35.4733 44.1492 35.5318 43.5652Z" fill="#DD7F33"/>
<path opacity="0.5" d="M54.5415 45.1421C54.6 44.4997 53.4302 43.9157 51.968 43.8573C50.5057 43.7989 49.2774 44.2077 49.2189 44.8501C49.1604 45.4925 50.3302 46.0181 51.7925 46.1349C53.2547 46.1933 54.483 45.7845 54.5415 45.1421Z" fill="#DD7F33"/>
</g>
<defs>
<linearGradient id="paint0_linear_344_1486" x1="41.9644" y1="32.342" x2="40.5068" y2="59.0593" gradientUnits="userSpaceOnUse">
<stop/>
<stop offset="0.9892" stop-color="#B3B3B3"/>
</linearGradient>
<linearGradient id="paint1_linear_344_1486" x1="41.9644" y1="32.342" x2="40.5068" y2="59.0593" gradientUnits="userSpaceOnUse">
<stop stop-color="#C04B00"/>
<stop offset="0.9892" stop-color="#B73400"/>
</linearGradient>
</defs>
</svg>
