<svg width="88" height="101" viewBox="0 0 88 101" fill="none" xmlns="http://www.w3.org/2000/svg">
<circle cx="44" cy="51" r="44" fill="#F4F0E6"/>
<g clip-path="url(#clip0_344_1590)">
<path d="M36.6307 44.1024L32.5986 44.6526L33.3574 50.1384L37.3895 49.5882L36.6307 44.1024Z" fill="#EFA26F"/>
<path d="M27.3281 75.1409C27.3281 77.688 27.6069 91.9188 28.5547 100.945L29.4467 100.778C29.4467 100.778 29.391 84.4435 30.6733 76.6359L27.3281 75.1409Z" fill="#FABE82"/>
<path d="M29.5582 92.5833C29.6697 87.3783 30.0042 80.7889 30.6733 76.6359L27.3281 75.1409C27.3281 77.0235 27.4954 85.2187 27.9414 93.0263C28.4432 92.8048 28.9449 92.6387 29.5582 92.5833Z" fill="#EFA26F"/>
<path d="M42.2695 76.193C42.8828 78.7402 47.9563 95.0752 49.6288 100.723L50.5766 100.834C50.5766 100.834 47.789 84.8312 45.8377 75.8054L42.2695 76.193Z" fill="#FABE82"/>
<path d="M48.9598 91.9189C48.012 86.7692 46.7855 80.346 45.8377 75.8054L42.2695 76.193C42.6598 77.8542 45.0571 85.6064 47.0642 92.3065C47.6775 92.085 48.2908 91.9743 48.9598 91.9189Z" fill="#EFA26F"/>
<path d="M23.0351 52.1611C20.9165 53.4901 9.32006 58.4183 17.7944 67.6655L18.7422 66.3366C18.7422 66.3366 11.4386 60.2456 23.4811 54.5975L23.0351 52.1611Z" fill="#FABE82"/>
<path d="M19.969 56.6463C20.9168 55.9819 22.0318 55.3174 23.4256 54.6529L23.0354 52.1611C22.3664 52.5487 20.8053 53.324 19.1885 54.4314C19.523 55.0959 19.746 55.8711 19.969 56.6463Z" fill="#EFA26F"/>
<path d="M49.1829 80.0691L39.7607 81.7856L41.0988 90.0916L50.1307 89.4271L49.1829 80.0691Z" fill="#A06E40"/>
<path d="M48.9045 78.4634L39.4824 80.1246L40.8205 88.4305L42.1028 86.5478L45.8939 88.0429L47.9568 86.7693L49.8523 87.766L48.9045 78.4634Z" fill="#724A29"/>
<path d="M34.4086 81.0105L24.875 81.675L25.321 90.0916L34.4086 90.3685V81.0105Z" fill="#A06E40"/>
<path d="M34.4086 81.0105L24.875 81.675L25.2095 88.652L27.2166 87.5999L29.9485 89.1503L32.29 87.2676L34.3529 89.3718L34.4086 81.0105Z" fill="#724A29"/>
<path d="M22.032 73.0367C22.032 73.0367 24.9311 68.8284 24.7081 68.2193C24.4851 67.6102 17.6275 62.2944 17.6275 62.2944L18.0178 64.1217L17.07 64.5093C17.516 65.1184 16.401 65.3399 16.401 65.3399C16.9585 66.2813 15.509 67.8871 14.7842 67.721C15.7877 69.0499 20.0249 73.812 22.032 73.0367Z" fill="#FFF8CC"/>
<path d="M22.2551 68.8838C23.0356 69.1607 24.0949 68.8838 24.6524 68.4962C24.7082 68.3854 24.7082 68.2747 24.7082 68.2193C24.4852 67.6102 17.6277 62.2944 17.6277 62.2944L18.0179 64.1217L17.1816 64.454C18.7985 66.0598 21.4746 68.6069 22.2551 68.8838Z" fill="#EAE0AD"/>
<path d="M23.314 65.4507C22.8122 65.6168 22.5892 65.8937 22.9237 66.9457C23.2582 67.9978 23.9272 68.7177 24.429 68.5515C24.9308 68.3854 25.0423 67.4441 24.7078 66.392C24.3733 65.3399 23.8157 65.2846 23.314 65.4507Z" fill="#EAE0AD"/>
<path d="M16.7355 69.9914L19.2444 66.4475L20.5267 64.5094L19.7461 63.845L18.5753 65.8384L16.0107 69.1608L16.7355 69.9914Z" fill="#8097AA"/>
<path d="M19.2442 66.4475L20.5265 64.5094L19.746 63.845L18.5752 65.8384L19.2442 66.4475Z" fill="#607889"/>
<path d="M21.3071 71.2648L21.8646 70.3234L19.4115 68.2747L18.5752 69.3821L18.9097 70.8772L19.4672 70.2681L21.3071 71.2648Z" fill="#8097AA"/>
<path d="M22.8125 67.2227C22.8125 67.2227 22.9798 67.0566 22.8125 66.4475L23.6488 67.2781L22.8125 67.2227Z" fill="#B5A871"/>
<path d="M23.5924 87.8213C21.7525 78.574 20.303 62.4052 22.4216 48.5066C29.6136 49.7802 36.0809 49.9463 43.6632 48.5066C43.6632 48.5066 47.7331 50.5 49.6287 50.3339C48.7924 77.079 50.6879 81.2319 51.9702 86.7138L47.1756 83.8898L45.5587 87.1014L41.3773 83.8898L39.4818 86.9907L36.5826 84.0559L34.9658 87.1568L31.8995 84.8865L29.5579 87.8213L26.5472 84.9973L23.5924 87.8213Z" fill="#F4D589"/>
<path d="M43.6076 77.4667C40.6527 76.0823 30.8961 75.0856 31.4536 71.2649C32.0111 67.4995 42.158 63.2358 42.158 63.2358L43.6076 77.4667Z" fill="#E5C47A"/>
<path d="M37.3082 49.8908C35.3568 52.4933 34.9108 67.9977 31.2869 66.6688C27.663 65.3952 23.3701 49.2263 23.3701 49.2263L37.3082 49.8908Z" fill="#E5C47A"/>
<path opacity="0.5" d="M22.1986 71.7632C25.5995 74.4211 32.68 74.9194 31.8995 78.6848C31.1747 82.4501 23.7039 85.551 23.7039 85.551C22.3659 79.5708 21.9756 76.2484 22.1986 71.7632Z" fill="#E5C47A"/>
<path d="M43.7189 48.4512C43.7189 48.4512 47.7888 50.4446 49.6844 50.2785C49.4613 59.2489 49.1826 76.3591 52.0817 86.7692L47.287 83.9452L45.6702 87.2121C42.7711 72.7598 42.0463 63.4018 43.7189 48.4512Z" fill="#C1A868"/>
<path d="M49.0715 55.9819C49.0715 54.0438 48.6255 52.4934 48.068 52.4934C47.5105 52.4934 47.0645 54.0438 47.0645 55.9819C47.0645 57.9199 47.5105 59.4704 48.068 59.4704C48.6813 59.4704 49.0715 57.9199 49.0715 55.9819Z" fill="#685730"/>
<path d="M48.1233 52.4934C50.5206 54.0992 64.5702 61.0208 54.925 67.6656L54.033 66.5027C54.033 66.5027 62.4516 62.3498 47.733 54.3761C47.4542 53.2686 47.51 52.8256 48.1233 52.4934Z" fill="#FABE82"/>
<path d="M56.0403 64.5093C55.3713 65.7829 54.0332 66.4473 54.0332 66.4473L54.9252 67.6102C56.3748 66.6134 57.2668 65.6167 57.7686 64.62C57.2111 64.6754 56.6536 64.62 56.0403 64.5093Z" fill="#EFA26F"/>
<path d="M53.1414 55.6496C51.0786 54.1545 49.0158 52.8809 48.2353 52.3826C47.6777 52.5487 47.176 53.49 47.3432 54.1545C49.2388 55.2066 51.1901 56.3694 52.4167 57.2554C52.5839 56.7017 52.8627 56.1479 53.1414 55.6496Z" fill="#EFA26F"/>
<path d="M47.7895 71.0988C47.7895 71.0988 51.8595 74.1997 52.4727 73.9782C53.086 73.8121 58.7727 67.2781 58.7727 67.2781L56.9329 67.5549L56.5984 66.5582C55.9294 67.0012 55.7621 65.8384 55.7621 65.8384C54.8143 66.3367 53.1975 64.8417 53.4763 64.1218C52.1382 65.1185 47.1763 69.05 47.7895 71.0988Z" fill="#FFF8CC"/>
<path d="M30.2276 73.0366L30.1719 61.2976L34.5763 61.353L33.1267 73.4796L30.2276 73.0366Z" fill="#3F3131"/>
<path d="M34.6875 57.4769C34.9105 56.1479 34.13 54.9297 32.9034 54.7082C31.6769 54.4867 30.5061 55.3727 30.2831 56.7017C30.0601 58.0306 30.8406 59.2488 32.0672 59.4703C33.2937 59.6918 34.4645 58.8058 34.6875 57.4769Z" fill="#3F3131"/>
<path d="M34.0179 62.0728C34.0736 61.8513 34.0179 61.8513 33.9064 61.796C33.6834 61.7406 33.2374 61.8513 33.0144 61.8513L30.1152 61.2976C30.0037 63.9555 30.0037 74.2548 30.2267 75.7499C30.84 75.0854 30.2825 74.4763 31.2303 74.6425C31.732 74.7532 31.1745 74.0887 31.732 74.1995C32.6798 74.3656 33.4046 75.3623 33.7391 75.6945C33.4046 77.4111 34.1851 78.7954 34.4639 78.8508C34.5754 78.8508 34.6869 78.6293 34.6869 78.5186C34.6869 78.6293 32.9586 67.8316 34.0179 62.0728Z" fill="#3F3131"/>
<path d="M36.025 56.6465C36.0807 56.2589 35.5232 55.7605 35.1887 55.7051C34.5754 55.5944 34.0179 56.2589 33.4604 56.1481C33.2931 56.1481 33.1259 56.0374 33.0144 56.0374C32.8471 55.982 32.6798 55.982 32.5126 56.0927L31.3975 58.806H31.3418C31.9551 59.0829 31.6206 59.7473 32.5126 59.0829C32.6241 59.0275 32.6798 59.0275 32.7914 59.0275C33.7949 59.1936 33.7391 59.9135 33.8506 59.1936C33.9064 58.7506 34.3524 58.9168 34.7427 58.9721C34.8542 58.9721 34.9099 58.9721 34.9657 58.806C35.0214 58.5291 34.7427 58.1415 34.7984 57.8093C34.7984 57.6986 34.9099 57.6432 35.0214 57.6985C35.1329 57.6985 35.1887 57.7539 35.3002 57.7539C35.356 57.7539 35.356 57.7539 35.356 57.6985C35.356 57.6985 35.356 57.6985 35.356 57.6432C35.1887 57.0894 34.2409 57.4217 34.9099 56.9787C35.356 56.868 35.9135 57.1448 36.025 56.6465Z" fill="#3F3131"/>
<path d="M29.8369 58.4737C29.8927 58.4183 29.9484 58.3629 29.9484 58.2522C29.9484 58.3629 29.8927 58.4183 29.8369 58.4737Z" fill="#3F3131"/>
<path d="M29.7254 58.5843C29.0564 58.8058 27.9971 58.6951 27.7741 59.7472C27.6626 60.4116 28.5547 60.4116 29.4467 58.8612C29.6139 58.7505 29.7812 58.5843 29.8927 58.4182C29.7812 58.529 29.7254 58.5843 29.7254 58.5843Z" fill="#3F3131"/>
<path d="M29.4465 99.8372L30.0598 101H24.9863L29.4465 99.8372Z" fill="#E27664"/>
<path d="M50.1306 99.5603L49.0713 101H54.535L50.1306 99.5603Z" fill="#E27664"/>
<path d="M51.9702 71.5416C51.6356 72.3168 51.8587 73.3689 52.1932 73.9226C52.3047 73.978 52.4162 73.978 52.4719 73.978C53.0852 73.8118 58.7719 67.2778 58.7719 67.2778L56.9321 67.5547L56.6533 66.7241C54.9808 68.2192 52.3047 70.7663 51.9702 71.5416Z" fill="#EAE0AD"/>
<path d="M47.4544 22.0936C47.7331 20.3771 40.3181 17.4977 31.4535 15.6704C23.2022 14.0092 16.7349 13.9538 16.4561 15.4489C16.2331 16.944 22.3101 19.5465 30.5057 21.4292C39.3145 23.4226 47.1756 23.8102 47.4544 22.0936Z" fill="#3D4944"/>
<path d="M55.2037 25.3054L54.2002 26.136L68.8073 39.204L69.2533 38.3734L55.2037 25.3054Z" fill="#839E95"/>
<path d="M57.4899 23.6995L56.4863 24.5301L71.0377 37.598L71.4837 36.7675L57.4899 23.6995Z" fill="#839E95"/>
<path d="M25.767 31.8394C27.6626 32.1717 24.1502 27.4096 26.3245 27.7419C28.4989 28.0741 25.321 20.931 27.9971 21.9277C30.6732 22.9244 29.3351 17.5533 33.182 17.9962C37.0289 18.4392 41.4891 24.8625 37.8652 28.0741C34.2413 31.2857 39.5378 36.0478 36.0812 35.6602C32.6245 35.2726 41.3219 42.3049 36.1369 41.2528C30.952 40.2007 39.0918 48.5067 32.6245 45.295C26.2688 42.0834 25.767 47.2331 21.9201 42.6925C18.0732 38.1519 12.275 44.2983 14.1148 38.2073C15.9546 32.1163 10.6581 32.3378 14.282 30.4551C17.9059 28.5725 18.4635 30.1229 20.4148 33.2238C22.4776 36.38 21.0838 31.0089 25.767 31.8394Z" fill="#FFB95C"/>
<path d="M36.1372 35.6601C39.5938 36.0477 34.2974 31.341 37.9212 28.074C41.4894 24.9177 37.2522 18.6606 33.4053 18.0515C33.5168 18.4391 33.6841 18.7714 33.7398 19.159C35.7469 26.8004 29.9487 34.8848 20.7496 37.2659C18.5195 37.8196 16.3451 38.0411 14.2266 37.875C14.1708 37.9857 14.1708 38.0965 14.1151 38.2072C12.2752 44.2982 18.0735 38.0965 21.9204 42.637C25.7673 47.1776 26.269 42.0833 32.6805 45.2396C39.092 48.4512 31.008 40.1453 36.1929 41.1973C41.3779 42.3048 32.6805 35.2171 36.1372 35.6601Z" fill="#EA9F44"/>
<path d="M50.3534 33.279C51.3569 31.6179 45.6145 33.2237 46.6738 31.2856C47.7331 29.4029 39.872 29.8459 41.7676 27.6864C43.6631 25.5822 38.1437 24.9177 39.9277 21.4846C41.7118 18.0515 49.2941 16.1688 51.0782 20.654C52.8623 25.1392 59.218 21.9276 57.6012 24.9731C55.9844 28.0186 65.741 22.4813 62.8977 26.9112C60.11 31.341 70.7587 26.7451 65.4623 31.5625C60.2216 36.4353 64.849 38.761 59.218 40.699C53.587 42.6371 57.3224 50.2231 52.249 46.4024C47.1755 42.5263 45.503 47.5652 45.0012 43.4676C44.4994 39.4254 46.172 39.4808 49.7959 38.761C53.4198 37.9857 47.9003 37.3213 50.3534 33.279Z" fill="#EA9F44"/>
<path d="M26.2692 14.6737C27.217 17.3316 27.1612 19.5465 26.0462 19.7126C24.9312 19.8787 27.0497 24.2532 24.5409 24.5854C20.7497 25.0838 23.2028 31.2302 20.3595 29.2368C17.5161 27.1326 19.0214 34.2757 16.5683 30.455C14.1152 26.6342 12.5542 22.7028 13.6135 19.9895C14.6728 17.3316 14.0595 13.3448 15.3418 16.8332C16.6241 20.3217 18.9099 14.5076 20.1365 17.0547C21.363 19.6019 22.0878 11.6282 23.0356 14.3415C23.9276 17.1655 25.3772 12.1819 26.2692 14.6737Z" fill="#FFB95C"/>
<path d="M25.8227 22.26C25.767 21.0418 25.4325 19.7682 26.0458 19.6575C27.1608 19.4913 27.1608 17.2764 26.2688 14.6185C25.3767 12.1821 23.9272 17.1657 22.9794 14.397C22.3661 12.5697 21.8643 15.5045 21.1953 16.8888C23.3696 18.3285 24.9307 20.2112 25.8227 22.26Z" fill="#CE7D25"/>
<path d="M51.5804 39.4254C61.6158 26.579 54.7583 11.0746 51.9149 9.41339C47.6778 6.86624 37.8654 0.941346 29.4468 10.1332C-4.61781 47.3991 39.3149 55.2067 51.5804 39.4254Z" fill="#FABE82"/>
<mask id="mask0_344_1590" style="mask-type:alpha" maskUnits="userSpaceOnUse" x="16" y="5" width="41" height="43">
<path d="M51.5801 39.4254C61.6155 26.5789 54.758 11.0745 51.9146 9.41332C47.6774 6.86617 37.419 1.38426 29.0004 10.5761C-5.06418 47.8421 39.3146 55.2066 51.5801 39.4254Z" fill="url(#paint0_linear_344_1590)"/>
</mask>
<g mask="url(#mask0_344_1590)">
<path opacity="0.3" d="M51.5801 39.4254C61.6155 26.5789 54.758 11.0745 51.9146 9.41332C47.6774 6.86617 37.419 1.38426 29.0004 10.5761C-5.06418 47.8421 39.3146 55.2066 51.5801 39.4254Z" fill="url(#paint1_linear_344_1590)"/>
<path d="M56.6535 27.0773C57.6571 18.2176 53.8102 10.5208 51.9146 9.35796C47.6774 6.81082 37.865 0.885926 29.4465 10.0778C25.5996 14.2861 22.7562 18.1622 20.6934 21.6507L56.6535 27.0773Z" fill="#F49C60"/>
<path d="M35.1334 12.1266C35.3006 14.9506 36.2484 16.944 37.5307 16.6118C38.813 16.2795 38.4228 21.1524 41.2104 20.3771C45.5033 19.1589 45.5033 25.859 47.6219 22.7582C49.7962 19.6573 51.2458 26.8004 52.1936 22.2598C53.1414 17.7192 53.1414 13.4002 50.8555 11.4621C48.5697 9.52406 47.2316 7.86288 47.3431 11.5729C47.5104 15.2828 42.8272 8.85959 42.6599 11.6836C42.4369 14.563 38.1998 7.58601 38.4228 10.5208C38.7015 13.3448 34.9661 9.46869 35.1334 12.1266Z" fill="#FFB95C"/>
<path d="M16.5117 15.3383C16.5117 15.3383 35.9692 13.4002 60.2214 28.0186C60.2214 28.0186 58.3259 10.6316 56.486 8.63814C54.702 6.70009 43.217 -4.26372 28.6099 1.88266C27.0489 2.49176 16.5117 15.3383 16.5117 15.3383Z" fill="#839E95"/>
<path d="M48.8486 22.0937C52.4725 23.6995 56.3194 25.6376 60.2778 28.0186C60.2778 28.0186 58.3823 10.6315 56.5424 8.6381C55.7619 7.80751 53.3088 5.42648 49.6849 3.37769C49.4062 8.029 49.0716 15.9473 48.8486 22.0937Z" fill="#6C877D"/>
<path d="M31.4533 0.885986C30.5613 1.16285 29.6135 1.43971 28.6657 1.8827C27.0489 2.4918 16.5117 15.3383 16.5117 15.3383C16.5117 15.3383 17.5153 15.2275 19.3551 15.2829C22.8117 11.13 28.2754 4.54059 31.4533 0.885986Z" fill="#6C877D"/>
<path d="M55.3718 24.5301C55.3718 24.5301 53.3648 6.8662 55.4276 8.0844C57.4904 9.3026 59.2745 26.5235 59.2745 26.5235L55.3718 24.5301Z" fill="#839E95"/>
<path d="M61.504 27.0219C44.8899 17.4977 32.3456 14.4522 15.7872 14.6737L15.7314 15.6704C30.896 15.6151 43.1615 18.716 61.4483 28.0186L61.504 27.0219Z" fill="#B4CCC3"/>
<path d="M47.0641 21.5401C46.3951 24.3088 46.7296 26.4683 48.0119 26.5237C49.2942 26.579 47.5659 31.1196 50.4093 31.175C54.8695 31.2304 52.8624 37.6536 55.873 35.3279C58.8836 33.0023 57.7128 38.5396 59.9429 34.442C62.2288 30.3998 63.9013 27.9634 62.3403 25.4716C60.7234 22.9244 59.9429 20.931 58.9951 24.5302C58.0473 28.1295 55.4827 20.5988 54.4792 23.312C53.4199 26.0253 51.4128 18.107 50.7995 20.931C50.1305 23.755 47.6774 18.993 47.0641 21.5401Z" fill="#FFB95C"/>
<path d="M62.3402 25.4715C61.7827 24.5855 61.3367 23.7549 60.8907 23.2012C60.1101 27.9079 56.2075 31.341 51.6358 31.1749C50.7438 31.1195 49.9632 30.9534 49.127 30.6765C49.4057 31.0087 49.796 31.1749 50.3535 31.1749C54.8137 31.2302 52.8066 37.6535 55.8172 35.3278C58.8278 33.0022 58.1031 40.256 60.3889 36.1584C62.7305 32.1162 63.957 28.0186 62.3402 25.4715Z" fill="#EA9F44"/>
<path d="M17.7388 18.6052C33.1264 20.3772 45.6149 22.7028 58.9954 30.898L56.8211 33.9435L52.9742 35.5493C49.8521 32.836 47.4547 35.1063 47.4547 35.1063L39.8724 32.5592L34.6317 33.5559L28.8335 31.0641L23.0352 32.836L19.5786 30.1228L17.1813 31.4517C17.237 31.4517 15.2857 26.4682 17.7388 18.6052Z" fill="#3F3131"/>
<path d="M17.2367 31.4517L19.634 30.1228L23.0907 32.836L28.8889 31.1195L34.6871 33.6113L39.9279 32.6145L44.0535 33.9989C45.7818 31.6178 46.8411 28.7938 46.9526 25.8037C46.9526 25.5268 46.9526 25.1946 46.9526 24.9177C37.8093 21.3739 28.4986 19.8234 17.7385 18.6052C15.2854 26.4682 17.2367 31.4517 17.2367 31.4517Z" fill="#5E4949"/>
<path d="M26.4922 35.4387L33.963 35.6602C33.963 35.6602 33.517 40.5884 31.7329 40.3115C29.9488 40.0347 26.4922 35.4387 26.4922 35.4387Z" fill="#3F2B1A"/>
<path d="M27.7188 35.7156L29.8931 38.4289L33.1267 38.4842C33.1267 38.4842 33.963 35.8817 33.5727 35.8817C33.071 35.8817 27.7188 35.7156 27.7188 35.7156Z" fill="#FFECDE"/>
<path d="M19.9129 28.0186C22.8678 28.1293 27.7182 28.9599 27.7182 28.9599C27.7182 28.9599 27.1607 23.2565 24.4846 22.3152C23.0908 21.7061 19.8014 22.7028 19.9129 28.0186Z" fill="#3F3131"/>
<path d="M31.0078 29.3475C33.9627 29.4582 39.0361 30.3442 39.0361 30.3442C39.0361 30.3442 39.3149 25.0284 36.6388 24.0317C35.1892 23.4226 31.6211 24.3639 31.0078 29.3475Z" fill="#3F3131"/>
<path d="M30.6729 29.569C33.6277 29.6798 38.5339 30.1781 38.5339 30.1781C38.5339 30.1781 38.7569 25.1946 36.5826 24.364C35.1888 23.8656 32.0667 24.4193 30.6729 29.569Z" fill="#FFECDE"/>
<path d="M19.9688 28.0186C22.4218 28.1847 27.328 28.9046 27.328 28.9046C27.328 28.9046 26.659 23.4227 24.2059 22.7028C22.7006 22.2598 20.0803 23.1458 19.9688 28.0186Z" fill="#FFECDE"/>
<path d="M23.5373 26.0252C23.5931 25.0285 22.9798 24.1979 22.1993 24.1425C21.4187 24.0871 20.7497 24.9177 20.694 25.9144C20.6382 26.9112 21.2515 27.7418 22.032 27.7971C22.8125 27.7971 23.4816 27.0219 23.5373 26.0252Z" fill="#87ABC1"/>
<path d="M35.6354 27.4096C35.6354 26.4128 34.9663 25.5823 34.1858 25.6376C33.4053 25.6376 32.792 26.4682 32.792 27.4649C32.792 28.4616 33.461 29.2922 34.2415 29.2369C35.0778 29.2369 35.6911 28.4063 35.6354 27.4096Z" fill="#87ABC1"/>
<path d="M34.2975 27.908C34.2975 27.5758 34.0745 27.2989 33.7957 27.3543C33.517 27.3543 33.2939 27.6311 33.2939 27.9634C33.2939 28.2956 33.517 28.5725 33.7957 28.5171C34.0745 28.5171 34.2975 28.2402 34.2975 27.908Z" fill="#C4E3F2"/>
<path d="M21.9763 26.4128C21.9763 26.0806 21.7533 25.8037 21.4745 25.8037C21.1958 25.8037 20.9727 26.0252 20.917 26.3574C20.917 26.6897 21.14 26.9665 21.4188 26.9665C21.6975 26.9665 21.9763 26.6897 21.9763 26.4128Z" fill="#C4E3F2"/>
<path d="M30.4499 32.5592C30.5057 31.8393 29.2791 31.2302 27.7738 31.1748C26.2685 31.1195 24.9862 31.6178 24.9862 32.3377C24.9305 33.0575 26.157 33.6666 27.6623 33.722C29.1676 33.7774 30.3942 33.279 30.4499 32.5592Z" fill="#EFA460"/>
<path d="M29.2791 32.2824C29.2791 31.7287 28.387 31.2857 27.2162 31.2304C26.0454 31.175 25.0977 31.5626 25.0977 32.1163C25.0977 32.6701 25.9897 33.113 27.1605 33.1684C28.2755 33.1684 29.2791 32.7808 29.2791 32.2824Z" fill="#FABE82"/>
<path d="M43.2175 35.1065C43.2732 34.3312 41.7121 33.6114 39.8166 33.5006C37.921 33.4453 36.3599 33.999 36.3042 34.7742C36.2484 35.5494 37.8095 36.2693 39.7051 36.38C41.6006 36.4354 43.1617 35.8817 43.2175 35.1065Z" fill="#EFA16C"/>
<path d="M22.7009 33.8328C22.7566 33.0576 21.5301 32.3377 20.0248 32.2824C18.5195 32.227 17.2372 32.7807 17.2372 33.6113C17.1814 34.3865 18.408 35.1064 19.9133 35.1618C21.4186 35.2171 22.7009 34.6634 22.7009 33.8328Z" fill="#EFA16C"/>
<path d="M56.208 34.7742C55.8735 33.3898 54.0894 32.6146 52.3053 33.0576C50.4655 33.5006 49.2947 34.9957 49.6292 36.38C49.9637 37.7643 51.7478 38.5395 53.5319 38.0965C55.3159 37.7089 56.5425 36.2139 56.208 34.7742Z" fill="#FABE82"/>
<path d="M55.093 35.0511C54.87 34.1098 53.6434 33.556 52.3611 33.8329C51.0788 34.1651 50.2983 35.1618 50.5213 36.1586C50.7443 37.0999 51.9708 37.6536 53.2531 37.3768C54.4797 37.0445 55.316 35.9924 55.093 35.0511Z" fill="#EFA16C"/>
<path d="M52.0823 35.937C51.9708 35.494 51.3575 35.2171 50.7443 35.3279C50.131 35.494 49.7407 35.9924 49.908 36.4353C50.0195 36.8783 50.6328 37.1552 51.246 37.0444C51.8593 36.8783 52.2496 36.4353 52.0823 35.937Z" fill="#FABE82"/>
<path d="M48.1233 36.6014C49.4056 35.8261 48.625 39.0931 49.9073 37.5981C51.1896 36.0476 50.3533 34.0542 50.3533 34.0542L46.5622 34.7187C45.5029 35.217 44.4436 38.8163 48.1233 36.6014Z" fill="#EA9F44"/>
<path d="M22.1436 15.2829C25.0984 11.7944 31.7329 -1.32918e-05 35.0781 0.830579C38.3674 1.66117 32.0117 16.5565 32.0117 16.5565L22.1436 15.2829Z" fill="#B4CCC3"/>
<path d="M34.5202 35.5493C34.4645 35.3278 34.1857 35.2725 33.9627 35.3278C33.7397 35.4386 33.5724 35.6601 33.6839 35.8816C33.7397 36.1031 34.0184 36.1584 34.2415 36.1031C34.5202 35.9923 34.6317 35.7154 34.5202 35.5493Z" fill="#3F2B1A"/>
<path d="M26.8822 35.6602C26.938 35.4387 26.7707 35.2172 26.5477 35.1618C26.3247 35.1064 26.1017 35.2172 26.046 35.4387C25.9902 35.6602 26.1575 35.8817 26.3805 35.937C26.6035 35.9924 26.8265 35.8817 26.8822 35.6602Z" fill="#3F2B1A"/>
<path d="M29.0004 4.04211C30.0597 2.82391 30.673 1.66108 30.45 1.43959C30.227 1.27347 29.1677 2.10406 28.1084 3.32226C27.0491 4.54047 26.4358 5.7033 26.6589 5.92479C26.9376 6.0909 27.9969 5.26031 29.0004 4.04211Z" fill="#DFF4EB"/>
<path d="M25.0978 8.6936C25.6553 7.97375 26.0456 7.30927 25.8784 7.14316C25.7111 6.97704 25.0978 7.47539 24.5403 8.19524C23.9828 8.91509 23.5925 9.57956 23.7598 9.74568C23.8713 9.9118 24.4845 9.41344 25.0978 8.6936Z" fill="#DFF4EB"/>
<path d="M39.5374 20.5986C38.7011 19.9895 38.5338 21.2631 38.4781 21.3738C38.4781 21.2631 38.5338 20.3771 37.3073 19.9895C36.1365 19.6019 36.6383 20.9862 36.7498 21.3185C36.6383 21.0416 36.1922 20.211 35.5232 20.0449C34.6869 19.8788 35.0214 20.9308 35.2445 21.7614L39.9276 23.6441C40.0391 23.6441 40.3737 21.2077 39.5374 20.5986Z" fill="#FFB95C"/>
<path d="M23.7042 17.5532C22.7007 17.5532 23.2582 18.6607 23.3139 18.7714C23.2582 18.6607 22.8122 17.9408 21.5299 18.3284C20.3591 18.6607 21.5299 19.4913 21.8644 19.7128C21.6414 19.5466 20.7493 19.1037 20.0803 19.3805C19.2998 19.7128 20.1361 20.3772 20.8051 20.9863L25.7113 19.8235C25.8785 19.7128 24.7635 17.5532 23.7042 17.5532Z" fill="#FFB95C"/>
</g>
<path d="M55.3711 72.7599C55.2596 72.2615 54.9808 72.04 53.9215 72.3169C52.8623 72.5938 52.0817 73.2029 52.1932 73.7012C52.3047 74.1996 53.3083 74.3657 54.3676 74.0888C55.4269 73.812 55.4826 73.2582 55.3711 72.7599Z" fill="#EAE0AD"/>
<path d="M51.1904 66.0045L54.5913 68.6624L56.4311 70.0467L57.1559 69.2715L55.2603 68.0533L52.0267 65.2847L51.1904 66.0045Z" fill="#8097AA"/>
<path d="M54.5908 68.6623L56.4306 70.0466L57.1554 69.2714L55.2598 68.0532L54.5908 68.6623Z" fill="#607889"/>
<path d="M28.5544 100.336C27.8854 100.114 27.0491 99.671 27.7739 99.1727C28.5544 98.6743 29.1677 100.059 29.1677 100.059L28.5544 100.336Z" fill="#E27664"/>
<path d="M50.6886 100.169C51.1903 99.7819 51.7478 99.062 50.9116 98.8405C50.0753 98.6191 50.0195 100.059 50.0195 100.059L50.6886 100.169Z" fill="#E27664"/>
<path d="M49.6846 70.4897L50.5766 71.0434L52.7509 68.7731L51.6916 67.8318L50.1863 68.1087L50.7439 68.6624L49.6846 70.4897Z" fill="#8097AA"/>
<path d="M53.6428 72.2061C53.6428 72.2061 53.81 72.3722 54.4233 72.2614L53.5312 73.092L53.6428 72.2061Z" fill="#B5A871"/>
</g>
<defs>
<linearGradient id="paint0_linear_344_1590" x1="38.8415" y1="39.2551" x2="40.4868" y2="47.3827" gradientUnits="userSpaceOnUse">
<stop/>
<stop offset="1" stop-color="white"/>
</linearGradient>
<linearGradient id="paint1_linear_344_1590" x1="38.8415" y1="39.2551" x2="40.4868" y2="47.3827" gradientUnits="userSpaceOnUse">
<stop stop-color="#C04B00"/>
<stop offset="1" stop-color="#B73400"/>
</linearGradient>
<clipPath id="clip0_344_1590">
<rect width="63" height="101" fill="white" transform="translate(13)"/>
</clipPath>
</defs>
</svg>
