<svg width="166" height="175" viewBox="0 0 166 175" fill="none" xmlns="http://www.w3.org/2000/svg">
<g clip-path="url(#clip0_344_1304)">
<path d="M82 174.6C127.287 174.6 164 137.887 164 92.5999C164 47.3125 127.287 10.5999 82 10.5999C36.7127 10.5999 0 47.3125 0 92.5999C0 137.887 36.7127 174.6 82 174.6Z" fill="#91776B"/>
<path d="M141.97 143.455C173.641 111.784 173.641 60.4348 141.97 28.7636C110.299 -2.90765 58.9496 -2.90765 27.2784 28.7636C-4.39279 60.4348 -4.39279 111.784 27.2784 143.455C58.9496 175.126 110.299 175.126 141.97 143.455Z" fill="white"/>
<path d="M82.7 6.8999C60.8 6.8999 40.9 15.5999 26.3 29.6999C12.2 44.2999 3.5 64.1999 3.5 86.0999C3.5 130.9 39.8 167.2 84.6 167.2C106.5 167.2 126.4 158.5 141 144.4C155.1 129.8 163.8 109.9 163.8 87.9999C163.8 43.1999 127.5 6.8999 82.7 6.8999Z" fill="#F4F4F4"/>
<path d="M81.3006 140.9C110.958 140.9 135.001 116.858 135.001 87.2C135.001 57.5423 110.958 33.5 81.3006 33.5C51.6429 33.5 27.6006 57.5423 27.6006 87.2C27.6006 116.858 51.6429 140.9 81.3006 140.9Z" fill="white"/>
<path d="M122.595 124.081C143.566 103.11 143.566 69.1091 122.595 48.1381C101.624 27.1671 67.6239 27.1672 46.6529 48.1381C25.682 69.1091 25.682 103.11 46.6529 124.081C67.6239 145.052 101.624 145.052 122.595 124.081Z" fill="#E5E5E5"/>
<path d="M128.7 40.1999C126.9 40.1999 126.7 44.9999 126.7 44.9999C126.7 44.9999 125 44.0999 125.4 45.8999C125.8 47.6999 127.6 51.0999 129.1 52.1999C130.6 53.2999 131.9 53.9999 131.9 54.5999C131.9 55.1999 131.7 56.3999 131.7 56.3999C131.7 56.3999 126.9 60.5999 124.7 61.8999C122.5 63.1999 118.3 65.1999 118.3 65.1999L120.9 66.2999C120.9 66.2999 125.7 62.0999 127.7 60.9999C129.7 59.8999 132.9 56.5999 132.9 56.5999C132.9 56.5999 133.8 56.5999 134.6 56.5999C135.4 56.5999 136.1 56.5999 136.1 56.5999C136.1 56.5999 141.3 65.1999 141.6 65.7999C142 66.4 142.7 64.6999 142.7 64.6999C142.7 64.6999 144.4 66.4999 145.6 65.9999C146.9 65.3999 145.2 62.4999 145.2 62.4999C145.2 62.4999 147.8 64.1999 147 63.0999C146.3 61.9999 143.9 60.2999 143.9 60.2999C143.9 60.2999 148.7 63.0999 149.2 63.0999C149.8 63.0999 148.5 61.0999 148.5 61.0999C148.5 61.0999 151.6 61.9999 152.2 61.7999C152.8 61.5999 150.7 59.9999 150.7 59.9999C150.7 59.9999 154.4 60.1999 154 59.0999C153.6 57.9999 147.6 55.9999 147.6 55.9999C147.6 55.9999 151.6 54.6999 150.2 54.4999C148.7 54.2999 146.3 54.4999 146.3 54.4999C146.3 54.4999 147.4 52.6999 145.4 53.1999C143.4 53.7999 138.2 55.3999 137.5 55.3999C136.8 55.3999 133.5 55.3999 133.5 55.3999C133.5 55.3999 132.8 52.9999 137.4 50.5999L135.7 52.7999L133.5 55.3999L138.1 52.0999C138.1 52.0999 142.1 52.0999 143.8 51.8999C145.5 51.6999 147.8 50.7999 148.8 50.7999C149.7 50.7999 153.6 50.3999 152.5 49.6999C151.4 48.9999 150.3 48.7999 150.3 48.7999C150.3 48.7999 153.2 47.2999 154.2 46.5999C155.1 45.8999 152.7 45.4999 152.7 45.4999C152.7 45.4999 155.5 44.7999 155.6 43.6999C155.8 42.5999 154.9 41.8999 154.9 41.8999C154.9 41.8999 155.6 39.0999 154 38.9999C152.3 38.7999 150 38.5999 149 39.1999C148.1 39.7999 146.1 40.2999 146.1 40.2999C146.1 40.2999 149.6 37.4999 148.3 37.3999C147 37.1999 144.8 39.9999 144.8 39.9999C144.8 39.9999 143.9 35.9999 143 37.5999C142.1 39.2999 141.7 41.5999 141.7 41.5999C141.7 41.5999 139.9 38.6999 139.7 39.8999C139.5 41.1999 139.3 42.4999 139.3 42.4999L137.1 43.5999C137.1 43.5999 135.8 39.1999 135.4 38.5999C135 37.9999 134.7 36.7999 133.6 38.7999C132.5 40.7999 131.8 45.3999 131.8 45.3999C131.8 45.3999 130.5 40.1999 128.7 40.1999Z" fill="#C4C9CE"/>
<path d="M58.1003 27.2999C58.1003 27.2999 53.1003 26.4999 52.5003 28.1999C51.9003 29.8999 56.3003 31.6999 56.3003 31.6999C56.3003 31.6999 54.9003 32.9999 56.7003 33.1999C58.6003 33.4999 62.3003 32.7999 63.8003 31.7999C65.3003 30.7999 66.5003 29.7999 67.0003 29.9999C67.5003 30.1999 68.7003 30.7999 68.7003 30.7999C68.7003 30.7999 71.1003 36.6999 71.6003 39.1999C72.1003 41.6999 72.6003 46.3999 72.6003 46.3999L74.5003 44.2999C74.5003 44.2999 72.1003 38.3999 71.7003 36.0999C71.3003 33.7999 69.3003 29.7999 69.3003 29.7999C69.3003 29.7999 69.6003 28.8999 69.9003 28.1999C70.2003 27.4999 70.4003 26.7999 70.4003 26.7999C70.4003 26.7999 80.3003 24.7999 80.9003 24.6999C81.5003 24.4999 80.2003 23.2999 80.2003 23.2999C80.2003 23.2999 82.5003 22.3999 82.4003 20.9999C82.3003 19.5999 79.0003 20.1999 79.0003 20.1999C79.0003 20.1999 81.4003 18.2999 80.1003 18.5999C78.8003 18.8999 76.5003 20.5999 76.5003 20.5999C76.5003 20.5999 80.7003 16.9999 80.9003 16.4999C81.1003 15.9999 78.7003 16.4999 78.7003 16.4999C78.7003 16.4999 80.6003 13.8999 80.6003 13.2999C80.6003 12.6999 78.4003 14.0999 78.4003 14.0999C78.4003 14.0999 79.8003 10.6999 78.6003 10.6999C77.4003 10.6999 73.5003 15.6999 73.5003 15.6999C73.5003 15.6999 73.6003 11.4999 73.0003 12.7999C72.3003 14.0999 71.7003 16.3999 71.7003 16.3999C71.7003 16.3999 70.3003 14.6999 70.2003 16.7999C70.0003 18.8999 69.9003 24.2999 69.6003 24.9999C69.4003 25.6999 68.3003 28.7999 68.3003 28.7999C68.3003 28.7999 65.8003 28.6999 65.1003 23.5999L66.6003 25.8999L68.3003 28.7999L66.7003 23.3999C66.7003 23.3999 68.0003 19.5999 68.4003 17.9999C68.8003 16.3999 68.7003 13.7999 69.0003 12.8999C69.3003 11.9999 70.2003 8.29995 69.2003 9.09995C68.1003 9.89995 67.6003 10.8999 67.6003 10.8999C67.6003 10.8999 67.2003 7.59995 66.8003 6.49995C66.4003 5.39995 65.3003 7.49995 65.3003 7.49995C65.3003 7.49995 65.5003 4.69995 64.5003 4.09995C63.5003 3.59995 62.5003 4.19994 62.5003 4.19994C62.5003 4.19994 60.1003 2.59995 59.4003 4.09995C58.7003 5.59995 57.7003 7.79995 57.9003 8.79995C58.1003 9.89995 58.0003 11.8999 58.0003 11.8999C58.0003 11.8999 56.6003 7.79994 56.0003 8.99995C55.4003 10.1999 57.3003 13.1999 57.3003 13.1999C57.3003 13.1999 53.2003 12.6999 54.4003 14.0999C55.7003 15.4999 57.8003 16.6999 57.8003 16.6999C57.8003 16.6999 54.4003 17.4999 55.6003 18.0999C56.8003 18.6999 57.9003 19.2999 57.9003 19.2999L58.2003 21.6999C58.2003 21.6999 53.6003 21.3999 53.0003 21.5999C52.4003 21.7999 51.0003 21.6999 52.6003 23.3999C54.0003 24.9999 58.1003 27.2999 58.1003 27.2999Z" fill="#C4C9CE"/>
<path d="M163 92.2C163.2 91.9 163.3 91.6 163.3 91.3C163.3 90.4 163.3 89.3 163.3 88C163.3 86.7 163.3 85.1 163.3 85.1C163.3 85.1 163.1 84.5 162.9 83.4C162.7 82.3 162.7 81.4 162.5 80.8C162.3 80.2 161.2 78 160.7 77.3C160.4 76.9 159.5 76 158.6 75.2C158.5 75.1 158.4 75.1 158.4 75C158.3 74.9 158.2 74.8 158.1 74.7L158 74.6C157.8 74.4 157.6 74.2 157.4 74C157.3 73.9 157.2 73.9 157.2 73.8C157.1 73.7 157 73.6 157 73.6L156.9 73.5C156.7 73.3 156.3 72.9 155.8 72.4C155.6 72.2 155.5 72.1 155.3 71.9C155 71.7 154.7 71.4 154.5 71.2C154.3 71.1 154.1 70.9 153.9 70.8C153.7 70.7 153.4 70.5 153.2 70.5C153.1 70.5 153.1 70.5 153 70.4C152.9 70.4 152.9 70.4 152.8 70.3C152.2 70.1 151.3 69.7 150.4 69.3C150.2 69.2 150.1 69.2 149.9 69.1C148.6 68.6 147.4 68.1 147.1 68C146.5 67.9 144.4 66.9 142.7 66.4C142.1 66.2 141.6 66.1 141.2 66.1C141 66.1 140.8 66.1 140.5 66.1C138.8 66.1 136.4 65.9 134.9 65.9C133.2 65.9 131.8 65.9 129.4 66.3C128.5 66.4 127.7 66.6 127 66.8C125.8 67.1 124.9 67.4 123.8 67.4C122.1 67.4 122.1 67.2 120.5 67.6C120.4 67.6 120.3 67.6 120.2 67.7C120.1 67.7 120 67.7 120 67.8H119.9C119.8 67.8 119.7 67.9 119.5 67.9C119.4 67.9 119.2 68 119.1 68C117.1 68.7 114.4 69.8 114.4 69.8C114.4 69.8 112.9 71.1 110.4 71.5C107.8 71.9 106.5 71.5 104 71.7C101.4 71.9 99.2001 73.2 100 76.7C100 76.9 100.1 77 100.1 77.2C97.9001 73.5 94.5001 70.5 90.5001 68.9C91.2001 68.9 92.0001 68.8 93.4001 68.7C97.3001 68.1 107 62.3 108.9 60.1C110.7 57.9 115 52.6 116.3 51.6C117.6 50.7 121.3 47.9 122.6 45.3C123.9 42.7 124.8 41.1 126.5 38.5C128.2 35.9 130.7 33.2 131.1 29.5C131.5 25.8 129.6 20.9 126.7 18.5C123.8 16.1 121.9 14.1 119 14.3C119 14.3 116.8 15.8 114.8 14.3C112.8 12.8 112.6 10.4 109.6 10.3C106.7 10.1 103.9 10.3 100.8 12.1C97.7001 13.9 92.7001 18.4 90.5001 20.4C88.3001 22.4 83.5001 28.1 83.5001 30.9C83.5001 33.7 81.7001 36.4 80.7001 38.1C79.7001 39.8 77.2001 40.7 77.2001 43.4C77.2001 46.1 79.8001 49.8 80.5001 51.9C81.2001 53.9 82.5001 64.4 86.2001 66.8C87.3001 67.5 88.0001 68 88.6001 68.4C86.9001 67.9 85.0001 67.6 83.1001 67.6C75.3001 67.6 68.5001 72.1 65.3001 78.7C65.6001 75.3 65.3001 71 65.3001 68.1C65.3001 64.3 67.0001 62.7 67.3001 60.6C67.6001 58.5 65.9001 56.7 65.2001 54.4C64.6001 52.2 64.0001 49.3 63.5001 48C63.0001 46.7 62.3001 46.1 61.9001 45.2C61.5001 44.4 62.6001 43.5 61.0001 42.6C59.1001 41.6 59.0001 41 58.0001 41.7C57.0001 42.4 56.3001 44.1 55.2001 44.5C54.1001 44.9 51.3001 44.7 49.3001 44.2C47.3001 43.7 44.9001 43.4 44.2001 43.1C43.6001 42.7 42.3001 41.6 41.3001 40.4C40.3001 39.2 39.5001 38.4 38.5001 37.4C37.6001 36.5 37.2001 35.9 35.8001 35.1C34.4001 34.3 34.0001 33.9 32.6001 33.3C31.2001 32.8 30.2001 33 29.4001 33C28.6001 33 29.1001 32.8 27.4001 32.8C26.7001 32.8 26.0001 32.8 25.4001 32.9H25.3001C25.0001 32.9 24.6001 33 24.3001 33C24.3001 33 24.3001 33 24.2001 33C23.9001 33 23.7001 33 23.5001 33C23.3001 33 23.0001 33 22.7001 33.1C22.1001 33.2 21.5001 33.4 21.1001 33.5C20.9001 33.6 20.8001 33.6 20.8001 33.6C20.8001 33.6 20.6001 33.8 20.4001 34.1C20.0001 34.6 19.4001 35.3 19.2001 35.8C18.9001 36.4 18.7001 36.9 18.4001 37C18.3001 37.1 18.2001 37.1 18.0001 37C17.6001 36.9 17.0001 37.1 16.5001 37.3C16.2001 37.5 15.9001 37.7 15.7001 38C15.3001 38.8 14.7001 39.8 14.1001 40.9C13.5001 42 12.7001 43.5 12.7001 43.5C12.7001 43.5 12.6001 44.1 12.2001 45.1C11.8001 46.2 11.4001 47 11.3001 47.5C11.2001 48.1 11.1001 50.5 11.2001 51.4C11.3001 51.9 11.6001 53.1 12.0001 54.3C12.2001 55 12.5001 55.7 12.6001 56.2C12.6001 56.3 12.6001 56.3 12.7001 56.4C12.7001 56.5 12.7001 56.5 12.8001 56.6C12.9001 56.8 12.9001 57.1 13.0001 57.5C13.1001 57.7 13.1001 58 13.2001 58.3C13.3001 58.6 13.4001 58.9 13.5001 59.3C13.6001 59.6 13.7001 59.8 13.8001 60.1C14.0001 60.5 14.2001 60.8 14.5001 61.1C15.0001 61.6 16.1001 63 17.0001 64.2C17.3001 64.6 17.6001 65 17.9001 65.3C18.1001 65.5 18.2001 65.7 18.4001 65.8C18.5001 65.9 18.6001 66.1 18.7001 66.1C19.3001 66.6 21.5001 69.8 23.0001 70.6C23.5001 70.9 24.2001 71.3 25.0001 71.7C25.2001 71.8 25.5001 72 25.7001 72.1C26.2001 72.4 26.7001 72.7 27.1001 73C27.6001 73.3 28.0001 73.5 28.3001 73.7C28.7001 73.9 29.0001 74.1 29.4001 74.3C30.5001 74.9 31.6001 75.4 33.3001 76.1C33.6001 76.2 33.9001 76.3 34.1001 76.4C36.0001 77 37.4001 77.1 38.6001 77.8C40.0001 78.6 40.0001 78.8 41.6001 79.2C41.7001 79.2 41.8001 79.3 41.9001 79.3C42.0001 79.3 42.1001 79.3 42.1001 79.4H42.2001C42.3001 79.4 42.4001 79.5 42.6001 79.5C42.7001 79.5 42.9001 79.6 43.0001 79.6C45.1001 80 48.0001 80.3 48.0001 80.3C48.0001 80.3 49.9001 79.9 52.3001 80.8C54.7001 81.7 55.7001 82.7 58.0001 83.7C59.7001 84.5 61.5001 84.7 62.8001 83.4C62.6001 84.6 62.4001 85.8 62.4001 87.1C62.4001 95.5 67.6001 102.7 74.9001 105.6C74.8001 105.6 74.6001 105.6 74.5001 105.7C70.7001 106.4 61.2001 112.8 59.5001 115.1C57.8001 117.4 53.8001 122.9 52.5001 123.9C51.9001 124.4 50.6001 125.4 49.4001 126.6L46.8001 126.4L42.9001 124.9L41.1001 124.5L39.3001 124.3C39.3001 124.3 40.4001 122.8 38.9001 121.4C38.1001 120.6 36.6001 119.2 35.3001 118.4C35.6001 118.3 35.8001 118.3 36.0001 118.2C38.1001 117.1 40.9001 117.3 42.5001 117.3C44.1001 117.3 45.9001 118.9 47.9001 117.7C50.0001 116.6 51.7001 113.1 52.9001 111.7C54.1001 110.3 61.4001 105 61.7001 101.3C62.0001 97.6 62.2001 97.6 60.2001 95C58.2001 92.3 49.8001 87.5 47.4001 87C45.0001 86.5 39.3001 85.6 38.1001 85C36.9001 84.4 33.3001 82.8 30.9001 82.9C28.5001 83 26.8001 83 24.2001 82.8C21.6001 82.6 18.5001 81.8 15.6001 83.1C12.7001 84.3 9.70009 87.8 9.20009 90.9C8.60009 94.1 7.90009 96.3 9.20009 98.4C9.20009 98.4 11.2001 99.4 10.9001 101.6C10.6001 103.7 8.90009 104.8 10.0001 107.1C11.1001 109.4 12.3001 111.4 15.0001 112.9C17.7001 114.5 23.0001 116.4 25.4001 117.2C27.1001 117.8 30.6001 118.5 33.3001 118.6C33.3001 120.3 34.8001 122.1 34.8001 122.1C34.8001 122.1 32.6001 122.5 31.3001 121.7C30.0001 121 28.9001 119.5 28.7001 120C28.5001 120.6 28.5001 121.7 28.5001 121.7C28.5001 121.7 25.6001 121.1 24.8001 121.9C24.1001 122.6 27.2001 124.5 27.2001 124.5C27.2001 124.5 23.5001 125.4 26.3001 126.5C29.1001 127.6 30.3001 128 30.3001 128C30.3001 128 27.0001 128.7 28.6001 129.7C30.3001 130.6 32.1001 130.3 32.1001 130.3C32.1001 130.3 30.8001 132 32.1001 131.4C33.4001 130.8 34.9001 129.9 34.9001 129.9C34.9001 129.9 33.8001 131.7 31.2001 131.7C28.6001 131.7 29.5001 131.7 24.0001 131.7C18.5001 131.7 17.9001 131.5 17.6001 132.3C17.2001 133 15.2001 134.3 16.3001 134.9C17.4001 135.5 20.2001 136.7 20.2001 136.7C20.2001 136.7 14.7001 137.1 13.8001 137.3C12.9001 137.5 11.0001 139 12.5001 139.3C14.0001 139.7 17.8001 140.4 17.8001 140.4C17.8001 140.4 18.2001 142.4 20.7001 141.9C23.3001 141.3 25.5001 139.5 25.5001 139.5C25.5001 139.5 20.9001 143.4 22.6001 143.2C24.3001 143 25.0001 141.9 25.0001 141.9C25.0001 141.9 25.4001 143.7 26.3001 143.6C27.2001 143.4 28.3001 141.4 28.3001 141.4C28.3001 141.4 28.3001 144.7 29.0001 143.4C29.7001 142.1 30.3001 140.6 30.3001 140.6C30.3001 140.6 30.7001 143.4 31.2001 141.9C31.8001 140.4 31.9001 139 33.0001 137.7C34.1001 136.4 35.0001 135.7 35.4001 134.4C35.8001 133.1 36.0001 129.8 36.9001 128.3C37.8001 126.8 38.2001 126.1 38.2001 126.1C38.2001 126.1 40.2001 130.7 40.2001 132.4C40.2001 134.1 39.3001 136.4 40.0001 138.3C40.4001 139.3 40.5001 140.4 40.7001 141.2C39.7001 142.9 38.9001 144.7 38.8001 146.7C38.6001 150.4 40.7001 155.3 43.7001 157.5C46.8001 159.8 48.7001 161.7 51.6001 161.4C51.6001 161.4 53.7001 159.8 55.8001 161.2C57.9001 162.6 58.2001 165 61.1001 165C64.0001 165 66.8001 164.7 69.8001 162.7C72.8001 160.7 77.6001 156.1 79.7001 153.9C81.8001 151.8 86.3001 145.9 86.2001 143.1C86.1001 140.3 87.8001 137.5 88.6001 135.8C88.9001 135.2 89.4001 134.7 89.9001 134.2C90.2001 135.4 90.7001 136.1 90.9001 136.9C91.1001 137.8 89.9001 138.4 91.3001 139.5C92.7001 140.6 92.6001 141.2 93.7001 140.7C94.8001 140.2 95.7001 138.7 96.8001 138.4C97.9001 138.1 100.5 138.9 102.4 139.6C104.3 140.4 106.5 141 107 141.5C107.6 141.9 108.6 143.2 109.4 144.5C110.2 145.8 110.8 146.7 111.5 147.8C112.3 148.8 112.4 149.5 113.7 150.4C114.9 151.4 115.3 151.9 116.5 152.6C117.7 153.3 118.7 153.2 119.5 153.4C120.3 153.6 119.8 153.6 121.3 153.9C122.4 154.1 123.5 154.2 124.3 154.3C124.4 154.3 124.4 154.3 124.5 154.3C124.6 154.3 124.6 154.3 124.7 154.3C124.8 154.3 124.9 154.3 125 154.4C125.8 154.6 127.6 154.2 127.6 154.2C127.6 154.2 127.9 153.9 128.4 153.5C128.8 153.1 129.3 152.7 129.6 152.3C129.9 151.9 130.1 151.5 130.4 151.3C130.5 151.2 130.7 151.2 130.9 151.2C131 151.2 131 151.2 131.1 151.3C131.3 151.3 131.7 151.3 132 151.3C132.5 151.2 132.9 151 133.2 150.6C133.8 149.9 134.4 149.1 135.2 148.1C136 147.1 137 145.9 137 145.9C137 145.9 137.2 145.4 137.7 144.4C138.2 143.5 138.8 142.8 139 142.2C139.2 141.7 139.7 139.3 139.7 138.5C139.7 137.6 139.2 134 139.1 133.3C139.1 132.9 139 132.1 138.8 131.2C138.7 130.3 138.4 129.4 138 128.9C137.8 128.6 137.5 128.2 137.3 127.7C137.2 127.6 137.2 127.4 137.1 127.3C136.9 126.9 136.6 126.4 136.4 126C136.2 125.6 135.9 125.1 135.7 124.8C135.3 124.2 135.1 123.7 134.9 123.5C134.6 123.1 133.6 121.1 132.5 119.7C132.4 119.6 132.3 119.5 132.2 119.4C131.9 119.1 131.7 118.8 131.5 118.6C131.2 118.4 130.8 118 130.4 117.7C130.2 117.5 130 117.4 129.8 117.2C129.4 116.8 129 116.5 128.5 116.1C128.3 115.9 128.1 115.7 127.9 115.6C127.5 115.3 127.1 115 126.8 114.7C126.5 114.5 126.2 114.2 125.9 114C125 113.3 124 112.6 122.4 111.7C122.1 111.6 121.9 111.4 121.7 111.3C121.2 111.1 120.8 110.9 120.4 110.7C120 110.5 119.6 110.3 119.2 110.2C118.6 109.9 118.1 109.7 117.7 109.3C117.4 109.1 117.2 108.9 117 108.7C116.8 108.5 116.7 108.4 116.5 108.3C116.2 108.1 115.8 107.8 115.1 107.5C115 107.5 114.9 107.4 114.8 107.4C114.7 107.4 114.7 107.3 114.6 107.3C114.6 107.3 114.5 107.3 114.5 107.2C114.4 107.2 114.3 107.1 114.2 107.1C112.3 106.4 109.2 105.4 109.2 105.4C109.2 105.4 107.3 105.5 105.2 104.2C103 102.9 102.3 101.9 100.2 100.5C99.4001 100 98.6001 99.6 97.7001 99.5C100.4 96.1 102 91.8 102 87.1C102 85.3 101.7 83.5 101.3 81.8C102.6 84.3 104.2 86.8 105.2 88.7C107 92 106.3 94.2 107 96.2C107.7 98.2 110.1 99 111.8 100.6C113.5 102.3 115.3 104.5 116.4 105.4C117.5 106.3 118.4 106.5 119.2 107.1C119.9 107.7 119.4 108.9 121.2 108.9C123 108.9 123.4 109.5 124 108.3C124.6 107.2 124.4 105.4 125.1 104.4C125.8 103.5 128.4 102.4 130.4 101.8C132.4 101.2 134.6 100.3 135.4 100.3C136.1 100.3 137.8 100.7 139.3 101.2C140.8 101.8 141.9 102.1 143.2 102.5C144.5 102.9 145 103.2 146.7 103.2C148.4 103.2 148.9 103.4 150.4 103.2C151.9 103 152.6 102.3 153.3 101.9C154 101.5 153.7 101.9 155.1 101.2C155.8 100.9 156.3 100.5 156.8 100.2C156.8 100.2 156.9 100.2 156.9 100.1C157.2 99.9 157.5 99.7 157.7 99.6C157.7 99.6 157.7 99.6 157.8 99.6C158 99.5 158.2 99.3 158.4 99.2C158.7 99.1 159 98.8 159.4 98.5C160 98 160.5 97.4 160.5 97.4C160.5 97.4 160.7 96.4 160.8 95.5C160.8 95.2 160.9 94.9 160.9 94.7C160.9 93.8 160.7 93.2 161.3 93C161.4 93 161.6 92.9 161.8 92.7C161.9 92.6 162 92.6 162 92.5C162.1 92.4 162.2 92.2 162.4 92.1C162.9 92.3 162.9 92.3 163 92.2ZM46.3001 132.2C46.2001 132.3 46.2001 132.4 46.1001 132.6L44.9001 131.5C44.9001 131.4 45.5001 131.7 46.3001 132.2ZM92.1001 114.9C91.5001 118.5 89.6001 119.7 89.0001 121.7C88.9001 121.9 88.9001 122.1 88.9001 122.3C88.1001 120.3 86.3001 109.9 82.5001 107.7C82.3001 107.6 82.1001 107.4 81.9001 107.3C82.2001 107.3 82.5001 107.3 82.9001 107.3C87.1001 107.3 91.1001 106 94.3001 103.7C93.1001 106.9 92.6001 111.8 92.1001 114.9Z" fill="#C4C9CE"/>
<path d="M129.001 37.5998C127.201 37.5998 127.001 42.3998 127.001 42.3998C127.001 42.3998 125.301 41.4998 125.701 43.2998C126.101 45.0998 127.901 48.4998 129.401 49.5998C130.901 50.6998 132.201 51.3998 132.201 51.9998C132.201 52.5998 132.001 53.7998 132.001 53.7998C132.001 53.7998 127.201 57.9998 125.001 59.2998C122.801 60.5998 118.601 62.5998 118.601 62.5998L121.201 63.6998C121.201 63.6998 126.001 59.4998 128.001 58.3998C130.001 57.2998 133.201 53.9998 133.201 53.9998C133.201 53.9998 134.101 53.9998 134.901 53.9998C135.601 53.9998 136.401 53.9998 136.401 53.9998C136.401 53.9998 141.601 62.5998 141.901 63.1998C142.301 63.7998 143.001 62.0998 143.001 62.0998C143.001 62.0998 144.701 63.8998 145.901 63.3998C147.201 62.7998 145.501 59.8998 145.501 59.8998C145.501 59.8998 148.101 61.5998 147.301 60.4998C146.601 59.3998 144.201 57.6998 144.201 57.6998C144.201 57.6998 149.001 60.4998 149.501 60.4998C150.101 60.4998 148.801 58.4998 148.801 58.4998C148.801 58.4998 151.901 59.3998 152.501 59.1998C153.101 58.9998 151.001 57.3998 151.001 57.3998C151.001 57.3998 154.701 57.5998 154.301 56.4998C153.901 55.3998 147.901 53.3998 147.901 53.3998C147.901 53.3998 151.901 52.0998 150.501 51.8998C149.001 51.6998 146.601 51.8998 146.601 51.8998C146.601 51.8998 147.701 50.0998 145.701 50.5998C143.701 51.1998 138.501 52.7998 137.801 52.7998C137.101 52.7998 133.801 52.7998 133.801 52.7998C133.801 52.7998 133.101 50.3998 137.701 47.9998L136.001 50.1998L133.801 52.7998L138.401 49.4998C138.401 49.4998 142.401 49.4998 144.101 49.2998C145.801 49.0998 148.101 48.1998 149.101 48.1998C150.001 48.1998 153.901 47.7998 152.801 47.0998C151.701 46.3998 150.601 46.1998 150.601 46.1998C150.601 46.1998 153.501 44.6998 154.501 43.9998C155.401 43.2998 153.001 42.8998 153.001 42.8998C153.001 42.8998 155.801 42.1998 155.901 41.0998C156.101 39.9998 155.201 39.2998 155.201 39.2998C155.201 39.2998 155.901 36.4998 154.301 36.3998C152.601 36.1998 150.301 35.9998 149.301 36.5998C148.401 37.1998 146.401 37.6998 146.401 37.6998C146.401 37.6998 149.901 34.8998 148.601 34.7998C147.301 34.5998 145.101 37.3998 145.101 37.3998C145.101 37.3998 144.201 33.3998 143.301 34.9998C142.401 36.6998 142.001 38.9998 142.001 38.9998C142.001 38.9998 140.201 36.0998 140.001 37.2998C139.801 38.5998 139.601 39.8998 139.601 39.8998L137.401 40.9998C137.401 40.9998 136.101 36.5998 135.701 35.9998C135.301 35.3998 135.001 34.1998 133.901 36.1998C132.801 38.1998 132.101 42.7998 132.101 42.7998C132.101 42.7998 130.801 37.5998 129.001 37.5998Z" fill="#C4C9CE"/>
<path d="M58.4007 24.6998C58.4007 24.6998 53.4007 23.8998 52.8007 25.5998C52.2007 27.2998 56.6007 29.0998 56.6007 29.0998C56.6007 29.0998 55.2007 30.3998 57.0007 30.5998C58.9007 30.8998 62.6007 30.1998 64.1007 29.1998C65.6007 28.1998 66.8007 27.1998 67.3007 27.3998C67.8007 27.5998 69.0007 28.1998 69.0007 28.1998C69.0007 28.1998 71.4007 34.0998 71.9007 36.5998C72.4007 39.0998 72.9007 43.7998 72.9007 43.7998L74.8007 41.6998C74.8007 41.6998 72.4007 35.7998 72.0007 33.4998C71.6007 31.1998 69.6007 27.1998 69.6007 27.1998C69.6007 27.1998 69.9007 26.2998 70.2007 25.5998C70.5007 24.8998 70.7007 24.1998 70.7007 24.1998C70.7007 24.1998 80.6007 22.1998 81.2007 22.0998C81.8007 21.8998 80.5007 20.6998 80.5007 20.6998C80.5007 20.6998 82.8007 19.7998 82.7007 18.3998C82.6007 16.9998 79.3007 17.5998 79.3007 17.5998C79.3007 17.5998 81.7007 15.6998 80.4007 15.9998C79.1007 16.2998 76.8007 17.9998 76.8007 17.9998C76.8007 17.9998 81.0007 14.3998 81.2007 13.8998C81.4007 13.3998 79.0007 13.8998 79.0007 13.8998C79.0007 13.8998 80.9007 11.2998 80.9007 10.6998C80.9007 10.0998 78.7007 11.4998 78.7007 11.4998C78.7007 11.4998 80.1007 8.09984 78.9007 8.09984C77.7007 8.09984 73.8007 13.0998 73.8007 13.0998C73.8007 13.0998 73.9007 8.89984 73.3007 10.1998C72.6007 11.4998 72.0007 13.7998 72.0007 13.7998C72.0007 13.7998 70.6007 12.0998 70.5007 14.1998C70.3007 16.2998 70.2007 21.6998 69.9007 22.3998C69.7007 23.0998 68.6007 26.1998 68.6007 26.1998C68.6007 26.1998 66.1007 26.0998 65.4007 20.9998L66.9007 23.2998L68.6007 26.1998L67.0007 20.8998C67.0007 20.8998 68.3007 17.0998 68.7007 15.4998C69.1007 13.8998 69.0007 11.2998 69.3007 10.3998C69.6007 9.49984 70.5007 5.79984 69.5007 6.59984C68.4007 7.39984 67.9007 8.39984 67.9007 8.39984C67.9007 8.39984 67.5007 5.09984 67.1007 3.99984C66.7007 2.89984 65.6007 4.99984 65.6007 4.99984C65.6007 4.99984 65.8007 2.19984 64.8007 1.59984C63.8007 1.09984 62.8007 1.69984 62.8007 1.69984C62.8007 1.69984 60.5007 -0.000160038 59.8007 1.49984C59.0007 2.99984 58.1007 5.19984 58.3007 6.29984C58.5007 7.39984 58.4007 9.39984 58.4007 9.39984C58.4007 9.39984 57.0007 5.19984 56.4007 6.29984C55.8007 7.49984 57.7007 10.4998 57.7007 10.4998C57.7007 10.4998 53.6007 9.99984 54.8007 11.3998C56.1007 12.7998 58.2007 13.9998 58.2007 13.9998C58.2007 13.9998 54.8007 14.7998 56.0007 15.3998C57.2007 15.9998 58.3007 16.5998 58.3007 16.5998L58.6007 18.9998C58.6007 18.9998 54.0007 18.6998 53.4007 18.8998C52.8007 19.0998 51.4007 18.9998 53.0007 20.6998C54.3007 22.4998 58.4007 24.6998 58.4007 24.6998Z" fill="#C4C9CE"/>
<path d="M163.3 89.5999C163.5 89.2999 163.6 88.9999 163.6 88.6999C163.6 87.7999 163.6 86.6999 163.6 85.3999C163.6 84.0999 163.6 82.4999 163.6 82.4999C163.6 82.4999 163.4 81.8999 163.2 80.7999C163 79.6999 163 78.7999 162.8 78.1999C162.6 77.5999 161.5 75.3999 161 74.6999C160.7 74.2999 159.8 73.3999 158.9 72.5999C158.8 72.4999 158.7 72.4999 158.7 72.3999C158.6 72.2999 158.5 72.1999 158.4 72.0999L158.3 71.9999C158.1 71.7999 157.9 71.5999 157.7 71.3999C157.6 71.2999 157.5 71.2999 157.5 71.1999C157.4 71.0999 157.3 70.9999 157.3 70.9999L157.2 70.8999C157 70.6999 156.6 70.2999 156.1 69.7999C155.9 69.5999 155.8 69.4999 155.6 69.2999C155.3 69.0999 155 68.7999 154.8 68.5999C154.6 68.4999 154.4 68.2999 154.2 68.1999C154 68.0999 153.7 67.8999 153.5 67.8999C153.4 67.8999 153.4 67.8999 153.3 67.7999C153.2 67.7999 153.2 67.7999 153.1 67.6999C152.5 67.4999 151.6 67.0999 150.7 66.6999C150.5 66.5999 150.4 66.5999 150.2 66.4999C148.9 65.9999 147.7 65.4999 147.4 65.3999C146.8 65.2999 144.7 64.2999 143 63.7999C142.4 63.5999 141.9 63.4999 141.5 63.4999C141.3 63.4999 141.1 63.4999 140.8 63.4999C139.1 63.4999 136.7 63.2999 135.2 63.2999C133.5 63.2999 132.1 63.2999 129.7 63.6999C128.8 63.7999 128 63.9999 127.3 64.1999C126.1 64.4999 125.2 64.7999 124.1 64.7999C122.4 64.7999 122.4 64.5999 120.8 64.9999C120.7 64.9999 120.6 64.9999 120.5 65.0999C120.4 65.0999 120.3 65.0999 120.3 65.1999H120.2C120.1 65.1999 120 65.2999 119.8 65.2999C119.7 65.2999 119.5 65.3999 119.4 65.3999C117.4 66.0999 114.7 67.1999 114.7 67.1999C114.7 67.1999 113.2 68.4999 110.7 68.8999C108.1 69.2999 106.8 68.8999 104.3 69.0999C101.7 69.2999 99.5005 70.5999 100.3 74.0999C100.3 74.2999 100.4 74.3999 100.4 74.5999C98.2005 70.8999 94.8005 67.8999 90.8005 66.2999C91.5005 66.2999 92.3005 66.1999 93.7005 66.0999C97.6005 65.4999 107.3 59.6999 109.2 57.4999C111 55.2999 115.3 49.9999 116.6 48.9999C117.9 48.0999 121.6 45.2999 122.9 42.6999C124.2 40.0999 125.1 38.4999 126.8 35.8999C128.5 33.2999 131 30.5999 131.4 26.8999C131.8 23.1999 129.9 18.2999 127 15.8999C124.1 13.4999 122.2 11.4999 119.3 11.6999C119.3 11.6999 117.1 13.1999 115.1 11.6999C113.1 10.1999 112.9 7.79993 109.9 7.69993C107 7.49993 104.2 7.69993 101.1 9.49993C98.0005 11.2999 93.0005 15.7999 90.8005 17.7999C88.6005 19.7999 83.8005 25.4999 83.8005 28.2999C83.8005 31.0999 82.0005 33.7999 81.0005 35.4999C80.1005 37.1999 77.5005 38.0999 77.5005 40.7999C77.5005 43.5999 80.1005 47.1999 80.8005 49.2999C81.5005 51.2999 82.8005 61.7999 86.5005 64.1999C87.6005 64.8999 88.3005 65.3999 88.9005 65.7999C87.2005 65.2999 85.3005 64.9999 83.4005 64.9999C75.6005 64.9999 68.8005 69.4999 65.6005 76.0999C65.9005 72.6999 65.6005 68.3999 65.6005 65.4999C65.6005 61.6999 67.3005 60.0999 67.6005 57.9999C67.9005 55.8999 66.2005 54.0999 65.5005 51.7999C64.9005 49.5999 64.3005 46.6999 63.8005 45.3999C63.3005 44.0999 62.6005 43.4999 62.2005 42.5999C61.8005 41.7999 62.9005 40.8999 61.3005 39.9999C59.7005 39.0999 59.6005 38.4999 58.6005 39.1999C57.6005 39.8999 56.9005 41.5999 55.8005 41.9999C54.7005 42.3999 51.9005 42.1999 49.9005 41.6999C47.9005 41.1999 45.5005 40.8999 44.8005 40.5999C44.2005 40.1999 42.9005 39.0999 41.9005 37.8999C40.9005 36.6999 40.1005 35.8999 39.1005 34.8999C38.2005 33.9999 37.8005 33.3999 36.4005 32.5999C35.0005 31.7999 34.6005 31.3999 33.2005 30.7999C31.8005 30.2999 30.8005 30.4999 30.0005 30.4999C29.2005 30.4999 29.7005 30.2999 28.0005 30.2999C27.3005 30.2999 26.6005 30.2999 26.0005 30.3999H25.9005C25.6005 30.3999 25.2005 30.4999 24.9005 30.4999C24.9005 30.4999 24.9005 30.4999 24.8005 30.4999C24.5005 30.4999 24.3005 30.4999 24.1005 30.4999C23.9005 30.4999 23.6005 30.4999 23.3005 30.5999C22.7005 30.6999 22.1005 30.8999 21.7005 30.9999C21.3005 30.9999 21.2005 30.9999 21.2005 30.9999C21.2005 30.9999 21.0005 31.1999 20.8005 31.4999C20.4005 31.9999 19.8005 32.6999 19.6005 33.1999C19.3005 33.7999 19.1005 34.2999 18.8005 34.3999C18.7005 34.4999 18.6005 34.4999 18.4005 34.3999C18.0005 34.2999 17.4005 34.4999 16.9005 34.6999C16.6005 34.8999 16.3005 35.0999 16.1005 35.3999C15.7005 36.1999 15.1005 37.1999 14.5005 38.2999C13.9005 39.3999 13.1005 40.8999 13.1005 40.8999C13.1005 40.8999 13.0005 41.4999 12.6005 42.4999C12.2005 43.5999 11.8005 44.3999 11.7005 44.8999C11.6005 45.4999 11.5005 47.8999 11.6005 48.7999C11.7005 49.2999 12.0005 50.4999 12.4005 51.6999C12.6005 52.3999 12.8005 53.0999 13.0005 53.5999C13.0005 53.6999 13.0005 53.6999 13.1005 53.7999C13.1005 53.8999 13.1005 53.8999 13.2005 53.9999C13.3005 54.1999 13.3005 54.4999 13.4005 54.8999C13.5005 55.0999 13.5005 55.3999 13.6005 55.6999C13.7005 55.9999 13.8005 56.2999 13.9005 56.6999C14.0005 56.9999 14.1005 57.1999 14.2005 57.4999C14.4005 57.8999 14.6005 58.1999 14.9005 58.4999C15.4005 58.9999 16.5005 60.3999 17.4005 61.5999C17.7005 61.9999 18.0005 62.3999 18.3005 62.6999C18.5005 62.8999 18.6005 63.0999 18.8005 63.1999C19.0005 63.2999 19.0005 63.4999 19.1005 63.4999C19.7005 63.9999 21.9005 67.1999 23.4005 67.9999C23.9005 68.2999 24.6005 68.6999 25.4005 69.0999C25.6005 69.1999 25.9005 69.3999 26.1005 69.4999C26.6005 69.7999 27.1005 70.0999 27.5005 70.3999C28.0005 70.6999 28.4005 70.8999 28.7005 71.0999C29.1005 71.2999 29.4005 71.4999 29.8005 71.6999C30.9005 72.2999 32.0005 72.7999 33.7005 73.4999C34.0005 73.5999 34.3005 73.6999 34.5005 73.7999C36.4005 74.3999 37.8005 74.4999 39.0005 75.1999C40.4005 75.9999 40.4005 76.1999 42.0005 76.5999C42.1005 76.5999 42.2005 76.6999 42.3005 76.6999C42.4005 76.6999 42.4005 76.6999 42.5005 76.7999H42.6005C42.7005 76.7999 42.8005 76.8999 43.0005 76.8999C43.1005 76.8999 43.3005 76.9999 43.4005 76.9999C45.5005 77.3999 48.4005 77.6999 48.4005 77.6999C48.4005 77.6999 50.3005 77.2999 52.7005 78.1999C55.1005 79.0999 56.1005 80.0999 58.4005 81.0999C60.1005 81.8999 61.9005 82.0999 63.2005 80.7999C63.0005 81.9999 62.8005 83.1999 62.8005 84.4999C62.8005 92.8999 68.0005 100.1 75.3005 103C75.2005 103 75.0005 103 74.9005 103.1C71.1005 103.8 61.6005 110.2 59.9005 112.5C58.2005 114.8 54.2005 120.3 52.9005 121.3C52.3005 121.8 51.0005 122.8 49.8005 124L47.2005 123.8L43.3005 122.3L41.5005 121.9L39.7005 121.7C39.7005 121.7 40.8005 120.2 39.3005 118.8C38.5005 118 37.0005 116.6 35.7005 115.8C36.0005 115.7 36.2005 115.7 36.4005 115.6C38.5005 114.5 41.3005 114.7 42.9005 114.7C44.5005 114.7 46.3005 116.3 48.3005 115.1C50.4005 114 52.1005 110.5 53.3005 109.1C54.5005 107.7 61.8005 102.4 62.1005 98.6999C62.4005 94.9999 62.6005 94.9999 60.6005 92.3999C58.6005 89.6999 50.2005 84.8999 47.8005 84.3999C45.4005 83.8999 39.7005 82.9999 38.5005 82.3999C37.3005 81.7999 33.7005 80.1999 31.3005 80.2999C28.8005 80.3999 27.2005 80.3999 24.6005 80.1999C22.0005 79.9999 18.9005 79.1999 16.0005 80.4999C13.1005 81.6999 10.1005 85.1999 9.60048 88.2999C9.00048 91.4999 8.30048 93.6999 9.60048 95.7999C9.60048 95.7999 11.6005 96.7999 11.3005 98.9999C11.0005 101.1 9.30048 102.2 10.4005 104.5C11.5005 106.8 12.7005 108.8 15.4005 110.3C18.1005 111.9 23.4005 113.8 25.8005 114.6C27.5005 115.2 31.0005 115.9 33.7005 116C33.7005 117.7 35.2005 119.5 35.2005 119.5C35.2005 119.5 33.0005 119.9 31.7005 119.1C30.4005 118.4 29.3005 116.9 29.1005 117.4C28.9005 118 28.9005 119.1 28.9005 119.1C28.9005 119.1 26.0005 118.5 25.2005 119.3C24.5005 120 27.6005 121.9 27.6005 121.9C27.6005 121.9 23.9005 122.8 26.7005 123.9C29.5005 125 30.7005 125.4 30.7005 125.4C30.7005 125.4 27.4005 126.1 29.0005 127.1C30.7005 128 32.5005 127.7 32.5005 127.7C32.5005 127.7 31.2005 129.4 32.5005 128.8C33.8005 128.2 35.3005 127.3 35.3005 127.3C35.3005 127.3 34.2005 129.1 31.6005 129.1C29.0005 129.1 29.9005 129.1 24.4005 129.1C18.9005 129.1 18.3005 128.9 18.0005 129.7C17.6005 130.4 15.6005 131.7 16.7005 132.3C17.8005 132.9 20.6005 134.1 20.6005 134.1C20.6005 134.1 15.1005 134.5 14.2005 134.7C13.3005 134.9 11.4005 136.4 12.9005 136.7C14.4005 137.1 18.2005 137.8 18.2005 137.8C18.2005 137.8 18.6005 139.8 21.1005 139.3C23.7005 138.7 25.9005 136.9 25.9005 136.9C25.9005 136.9 21.3005 140.8 23.0005 140.6C24.7005 140.4 25.4005 139.3 25.4005 139.3C25.4005 139.3 25.8005 141.1 26.7005 141C27.6005 140.8 28.7005 138.8 28.7005 138.8C28.7005 138.8 28.7005 142.1 29.4005 140.8C30.1005 139.5 30.7005 138 30.7005 138C30.7005 138 31.1005 140.8 31.6005 139.3C32.2005 137.8 32.3005 136.4 33.4005 135.1C34.5005 133.8 35.4005 133.1 35.8005 131.8C36.2005 130.5 36.4005 127.2 37.3005 125.7C38.2005 124.2 38.6005 123.5 38.6005 123.5C38.6005 123.5 40.6005 128.1 40.6005 129.8C40.6005 131.5 39.7005 133.8 40.4005 135.7C40.8005 136.7 40.9005 137.8 41.1005 138.6C40.1005 140.3 39.3005 142.1 39.2005 144.1C39.0005 147.8 41.1005 152.7 44.1005 154.9C47.2005 157.2 49.1005 159.1 52.0005 158.8C52.0005 158.8 54.1005 157.2 56.2005 158.6C58.3005 160 58.6005 162.4 61.5005 162.4C64.4005 162.4 67.2005 162.1 70.2005 160.1C73.2005 158.1 78.0005 153.5 80.1005 151.3C82.2005 149.2 86.7005 143.3 86.6005 140.5C86.5005 137.7 88.2005 134.9 89.0005 133.2C89.3005 132.6 89.8005 132.1 90.3005 131.6C90.6005 132.8 91.1005 133.5 91.3005 134.3C91.5005 135.2 90.3005 135.8 91.7005 136.9C93.1005 138 93.0005 138.6 94.1005 138.1C95.2005 137.6 96.1005 136.1 97.2005 135.8C98.3005 135.5 100.9 136.3 102.8 137C104.7 137.8 106.9 138.4 107.4 138.9C108 139.3 109 140.6 109.8 141.9C110.6 143.2 111.2 144.1 111.9 145.2C112.7 146.2 112.8 146.9 114.1 147.8C115.3 148.8 115.7 149.3 116.9 150C118.1 150.7 119.1 150.6 119.9 150.8C120.7 151 120.2 151 121.7 151.3C122.8 151.5 123.9 151.6 124.7 151.7C124.8 151.7 124.8 151.7 124.9 151.7C125 151.7 125 151.7 125.1 151.7C125.2 151.7 125.3 151.7 125.4 151.8C126.2 152 128 151.6 128 151.6C128 151.6 128.3 151.3 128.8 150.9C129.2 150.5 129.7 150.1 130 149.7C130.3 149.3 130.5 148.9 130.8 148.7C130.9 148.6 131.1 148.6 131.3 148.6C131.4 148.6 131.4 148.6 131.5 148.7C131.7 148.7 132.1 148.7 132.4 148.7C132.9 148.6 133.3 148.4 133.6 148C134.2 147.3 134.8 146.5 135.6 145.5C136.4 144.5 137.4 143.3 137.4 143.3C137.4 143.3 137.6 142.8 138.1 141.8C138.6 140.9 139.2 140.2 139.4 139.6C139.6 139.1 140.1 136.7 140.1 135.9C140.1 135 139.6 131.4 139.5 130.7C139.5 130.3 139.4 129.5 139.2 128.6C139.1 127.7 138.8 126.8 138.4 126.3C138.2 126 137.9 125.6 137.7 125.1C137.6 125 137.6 124.8 137.5 124.7C137.3 124.3 137 123.8 136.8 123.4C136.6 123 136.3 122.5 136.1 122.2C135.7 121.6 135.5 121.1 135.3 120.9C135 120.5 134 118.5 132.9 117.1C132.8 117 132.7 116.9 132.6 116.8C132.3 116.5 132.1 116.2 131.9 116C131.6 115.8 131.2 115.4 130.8 115.1C130.6 114.9 130.4 114.8 130.2 114.6C129.8 114.2 129.4 113.9 128.9 113.5C128.7 113.3 128.5 113.1 128.3 113C127.9 112.7 127.5 112.4 127.2 112.1C126.9 111.9 126.6 111.6 126.3 111.4C125.4 110.7 124.4 110 122.8 109.1C122.5 109 122.3 108.8 122.1 108.7C121.6 108.5 121.2 108.3 120.8 108.1C120.4 107.9 120 107.7 119.6 107.6C119 107.3 118.5 107.1 118.1 106.7C117.8 106.5 117.6 106.3 117.4 106.1C117.2 105.9 117.1 105.8 116.9 105.7C116.6 105.5 116.2 105.2 115.5 104.9C115.4 104.9 115.3 104.8 115.2 104.8C115.1 104.8 115.1 104.7 115 104.7C115 104.7 114.9 104.7 114.9 104.6C114.8 104.6 114.7 104.5 114.6 104.5C112.7 103.8 109.6 102.8 109.6 102.8C109.6 102.8 107.7 102.9 105.6 101.6C103.4 100.3 102.7 99.2999 100.6 97.8999C99.8005 97.3999 99.0005 96.9999 98.1005 96.8999C100.8 93.4999 102.4 89.1999 102.4 84.4999C102.4 82.6999 102.1 80.8999 101.7 79.1999C103 81.6999 104.6 84.1999 105.6 86.0999C107.4 89.3999 106.7 91.5999 107.4 93.5999C108.1 95.5999 110.5 96.3999 112.2 97.9999C113.9 99.6999 115.7 101.9 116.8 102.8C117.9 103.7 118.8 103.9 119.6 104.5C120.4 105.1 119.8 106.3 121.6 106.3C123.4 106.3 123.8 106.9 124.4 105.7C125 104.6 124.8 102.8 125.5 101.8C126.2 100.9 128.8 99.7999 130.8 99.1999C132.8 98.5999 135 97.6999 135.8 97.6999C136.5 97.6999 138.2 98.0999 139.7 98.5999C141.2 99.1999 142.3 99.4999 143.6 99.8999C144.9 100.3 145.4 100.6 147.1 100.6C148.8 100.6 149.3 100.8 150.8 100.6C152.3 100.4 153 99.6999 153.7 99.2999C154.4 98.8999 154.1 99.2999 155.5 98.5999C156.2 98.2999 156.7 97.8999 157.2 97.5999C157.2 97.5999 157.3 97.5999 157.3 97.4999C157.6 97.2999 157.9 97.0999 158.1 96.9999C158.1 96.9999 158.1 96.9999 158.2 96.9999C158.4 96.8999 158.6 96.6999 158.8 96.5999C159.1 96.4999 159.4 96.1999 159.8 95.8999C160.4 95.3999 160.9 94.7999 160.9 94.7999C160.9 94.7999 161.1 93.7999 161.2 92.8999C161.2 92.5999 161.3 92.2999 161.3 92.0999C161.3 91.1999 161.1 90.5999 161.7 90.3999C161.8 90.3999 162 90.2999 162.2 90.0999C162.3 89.9999 162.4 89.9999 162.4 89.8999C162.5 89.7999 162.6 89.5999 162.8 89.4999C163.2 89.7999 163.2 89.6999 163.3 89.5999ZM46.6005 129.6C46.5005 129.7 46.5005 129.8 46.4005 130L45.2005 128.9C45.2005 128.8 45.8005 129.1 46.6005 129.6ZM92.4005 112.3C91.8005 115.9 89.9005 117.1 89.3005 119.1C89.2005 119.3 89.2005 119.5 89.2005 119.7C88.4005 117.7 86.6005 107.3 82.8005 105.1C82.6005 105 82.4005 104.8 82.2005 104.7C82.5005 104.7 82.8005 104.7 83.2005 104.7C87.4005 104.7 91.4005 103.4 94.6005 101.1C93.4005 104.3 92.9005 109.2 92.4005 112.3Z" fill="#C4C9CE"/>
<path d="M86.0481 103.114C96.7198 100.486 103.241 89.7043 100.613 79.0326C97.9851 68.3608 87.2036 61.8399 76.5319 64.4677C65.8601 67.0956 59.3393 77.877 61.9671 88.5487C64.5949 99.2205 75.3763 105.741 86.0481 103.114Z" fill="#FFD300"/>
<path d="M85.5043 101.811C95.4529 99.482 101.63 89.5295 99.3016 79.5809C96.9731 69.6324 87.0206 63.4551 77.072 65.7836C67.1235 68.1121 60.9462 78.0647 63.2747 88.0132C65.6033 97.9618 75.5558 104.139 85.5043 101.811Z" fill="#F4F4D9"/>
<path d="M80.1009 82.0998C80.1009 82.0998 78.4009 71.3998 78.1009 70.0998C77.7009 68.7998 74.1009 70.0998 72.6009 70.9998C71.1009 71.8998 69.8009 73.3998 70.8009 75.1998C71.8009 76.9998 79.4009 83.0998 80.2009 82.8998C80.8009 82.7998 80.1009 82.0998 80.1009 82.0998Z" fill="#F9C24C"/>
<path d="M79.1006 83C79.1006 83 71.0006 76.6 70.1006 76.2C69.2006 75.8 67.7006 76.8 66.6006 78.8C65.5006 80.8 65.5006 82.1 67.5006 82.8C69.5006 83.5 77.8006 84.1 78.9006 84.1C80.1006 84.1 79.1006 83 79.1006 83Z" fill="#F9C24C"/>
<path d="M79 84.1C79 84.1 68.3 83.5 67 83.7C65.7 83.9 65.2 85.9 65.9 88.1C66.6 90.3 67.2 92.5 69 92.5C70.8 92.5 79.1 85.3 79.1 85.3L79 84.1Z" fill="#F9C24C"/>
<path d="M79.1009 85.3999L70.3009 92.5999C70.3009 92.5999 69.6009 93.8999 71.2009 95.6999C72.8009 97.4999 76.7009 98.5999 77.5009 98.0999C78.2009 97.4999 80.1009 86.2999 80.3009 85.7999C80.4009 85.1999 80.1009 84.8999 79.1009 85.3999Z" fill="#F9C24C"/>
<path d="M80.2004 85.7998C80.2004 85.7998 87.0004 94.0998 87.0004 96.2998C87.0004 98.4998 83.9004 98.6998 81.7004 98.6998C79.5004 98.6998 78.9004 97.3998 78.9004 97.3998L80.2004 85.7998Z" fill="#F9C24C"/>
<path d="M80.2003 84.7C80.2003 84.7 87.9003 95.6 88.8003 96.3C89.7003 97 91.6003 96.5 93.0003 94.6C94.5003 92.8 96.7003 92.4 94.1003 90.4C91.5003 88.4 81.2003 83.2 81.2003 83.2C81.2003 83.2 79.5003 83.7 80.2003 84.7Z" fill="#F9C24C"/>
<path d="M81.3001 83.2C81.3001 83.2 89.8001 74.9 89.9001 73.3C90.0001 71.7 87.9001 69.4 85.1001 69.1C82.3001 68.7 79.0001 68.7 79.2001 70C79.4001 71.3 80.3001 85.1 81.1001 83.9L81.3001 83.2Z" fill="#F9C24C"/>
<path d="M81.3008 83.1998C81.3008 83.1998 90.9008 73.2998 92.0008 73.2998C93.1008 73.2998 95.7008 77.1998 96.2008 77.8998C96.8008 78.5998 96.0008 79.3998 94.5008 79.5998C93.1008 79.6998 83.6008 83.3998 81.3008 83.1998Z" fill="#F9C24C"/>
<path d="M96.6 79.5C96.6 79.5 96.8 80.4 97.3 83.9C97.9 87.4 95.5 89.8 95.5 89.8L83.5 83.5L96.6 79.5Z" fill="#F9C24C"/>
<path d="M153.101 38.0999C153.101 38.0999 153.801 35.2999 152.201 35.1999C150.501 34.9999 148.201 34.7999 147.201 35.3999C146.301 35.9999 144.301 36.4999 144.301 36.4999C144.301 36.4999 147.801 33.6999 146.501 33.5999C145.201 33.3999 143.001 36.1999 143.001 36.1999C143.001 36.1999 142.101 32.1999 141.201 33.7999C140.301 35.4999 139.901 37.7999 139.901 37.7999C139.901 37.7999 138.101 34.8999 137.901 36.0999C137.701 37.3999 137.501 38.6999 137.501 38.6999L135.301 39.7999C135.301 39.7999 134.001 35.3999 133.601 34.7999C133.201 34.1999 132.901 32.9999 131.801 34.9999C130.701 36.9999 130.001 41.5999 130.001 41.5999C130.001 41.5999 129.101 36.5999 127.201 36.5999C125.401 36.5999 125.201 41.3999 125.201 41.3999C125.201 41.3999 123.501 40.4999 123.901 42.2999C124.301 44.0999 126.101 47.4999 127.601 48.5999C129.101 49.6999 130.401 50.3999 130.401 50.9999C130.401 51.5999 130.201 52.7999 130.201 52.7999C130.201 52.7999 125.401 56.9999 123.201 58.2999C121.001 59.5999 116.801 61.5999 116.801 61.5999L119.401 62.6999C119.401 62.6999 124.201 58.4999 126.201 57.3999C128.201 56.2999 131.401 52.9999 131.401 52.9999C131.401 52.9999 132.301 52.9999 133.101 52.9999C133.901 52.9999 134.601 52.9999 134.601 52.9999C134.601 52.9999 139.801 61.5999 140.101 62.1999C140.501 62.7999 141.201 61.0999 141.201 61.0999C141.201 61.0999 142.901 62.8999 144.101 62.3999C145.401 61.7999 143.701 58.8999 143.701 58.8999C143.701 58.8999 146.301 60.5999 145.501 59.4999C144.801 58.3999 142.401 56.6999 142.401 56.6999C142.401 56.6999 147.201 59.4999 147.701 59.4999C148.301 59.4999 147.001 57.4999 147.001 57.4999C147.001 57.4999 150.101 58.3999 150.701 58.1999C151.301 57.9999 149.201 56.3999 149.201 56.3999C149.201 56.3999 152.901 56.5999 152.501 55.4999C152.101 54.3999 146.101 52.3999 146.101 52.3999C146.101 52.3999 150.101 51.0999 148.701 50.8999C147.201 50.6999 144.801 50.8999 144.801 50.8999C144.801 50.8999 145.901 49.0999 143.901 49.5999C141.901 50.1999 136.701 51.7999 136.001 51.7999C135.301 51.7999 132.001 51.7999 132.001 51.7999C132.001 51.7999 131.301 49.3999 135.901 46.9999L134.201 49.1999L132.001 51.7999L136.601 48.4999C136.601 48.4999 140.601 48.4999 142.301 48.2999C144.001 48.0999 146.301 47.1999 147.301 47.1999C148.201 47.1999 152.101 46.7999 151.001 46.0999C149.901 45.3999 148.801 45.1999 148.801 45.1999C148.801 45.1999 151.701 43.6999 152.701 42.9999C153.601 42.2999 151.201 41.8999 151.201 41.8999C151.201 41.8999 154.001 41.1999 154.101 40.0999C154.001 38.8999 153.101 38.0999 153.101 38.0999Z" fill="#36A20C"/>
<path d="M61.1009 0.799799C61.1009 0.799799 58.7009 -0.800201 58.0009 0.699799C57.3009 2.1998 56.3009 4.3998 56.5009 5.3998C56.7009 6.3998 56.6009 8.4998 56.6009 8.4998C56.6009 8.4998 55.2009 4.2998 54.6009 5.3998C54.0009 6.5998 55.9009 9.5998 55.9009 9.5998C55.9009 9.5998 51.8009 9.0998 53.0009 10.4998C54.3009 11.8998 56.4009 13.0998 56.4009 13.0998C56.4009 13.0998 53.0009 13.8998 54.2009 14.4998C55.4009 15.0998 56.5009 15.6998 56.5009 15.6998L56.8009 18.0998C56.8009 18.0998 52.2009 17.7998 51.6009 17.9998C51.0009 18.1998 49.6009 18.0998 51.2009 19.7998C52.7009 21.4998 56.8009 23.6998 56.8009 23.6998C56.8009 23.6998 51.8009 22.8998 51.2009 24.5998C50.6009 26.2998 55.0009 28.0998 55.0009 28.0998C55.0009 28.0998 53.6009 29.3998 55.4009 29.5998C57.3009 29.8998 61.0009 29.1998 62.5009 28.1998C64.0009 27.1998 65.2009 26.1998 65.7009 26.3998C66.2009 26.5998 67.4009 27.1998 67.4009 27.1998C67.4009 27.1998 69.8009 33.0998 70.3009 35.5998C70.8009 38.0998 71.3009 42.7998 71.3009 42.7998L73.2009 40.6998C73.2009 40.6998 70.8009 34.7998 70.4009 32.4998C70.0009 30.1998 68.0009 26.1998 68.0009 26.1998C68.0009 26.1998 68.3009 25.2998 68.6009 24.5998C68.9009 23.8998 69.1009 23.1998 69.1009 23.1998C69.1009 23.1998 79.0009 21.1998 79.6009 21.0998C80.2009 20.8998 78.9009 19.6998 78.9009 19.6998C78.9009 19.6998 81.2009 18.7998 81.1009 17.3998C81.0009 15.9998 77.7009 16.5998 77.7009 16.5998C77.7009 16.5998 80.1009 14.6998 78.8009 14.9998C77.5009 15.2998 75.2009 16.9998 75.2009 16.9998C75.2009 16.9998 79.4009 13.3998 79.6009 12.8998C79.8009 12.3998 77.4009 12.8998 77.4009 12.8998C77.4009 12.8998 79.3009 10.2998 79.3009 9.6998C79.3009 9.0998 77.1009 10.4998 77.1009 10.4998C77.1009 10.4998 78.5009 7.0998 77.3009 7.0998C76.1009 7.0998 72.2009 12.0998 72.2009 12.0998C72.2009 12.0998 72.3009 7.8998 71.7009 9.1998C71.0009 10.4998 70.4009 12.7998 70.4009 12.7998C70.4009 12.7998 69.0009 11.0998 68.9009 13.1998C68.8009 15.2998 68.6009 20.6998 68.3009 21.3998C68.1009 22.0998 67.0009 25.1998 67.0009 25.1998C67.0009 25.1998 64.5009 25.0998 63.8009 19.9998L65.3009 22.2998L67.0009 25.1998L65.2009 19.9998C65.2009 19.9998 66.5009 16.1998 66.9009 14.5998C67.3009 12.9998 67.2009 10.3998 67.5009 9.4998C67.8009 8.5998 68.7009 4.8998 67.7009 5.6998C66.6009 6.4998 66.1009 7.4998 66.1009 7.4998C66.1009 7.4998 65.7009 4.1998 65.3009 2.9998C64.9009 1.8998 63.8009 3.9998 63.8009 3.9998C63.8009 3.9998 64.0009 1.1998 63.0009 0.699799C62.1009 0.0997985 61.1009 0.799799 61.1009 0.799799Z" fill="#36A20C"/>
<path d="M38.3009 121.1C38.3009 121.1 39.4009 119.6 37.9009 118.2C36.4009 116.7 32.4009 113.2 32.2009 115.1C32.0009 116.9 33.7009 119 33.7009 119C33.7009 119 31.5009 119.4 30.2009 118.6C28.9009 117.9 27.8009 116.4 27.6009 116.9C27.4009 117.5 27.4009 118.6 27.4009 118.6C27.4009 118.6 24.5009 118 23.7009 118.8C23.0009 119.5 26.1009 121.4 26.1009 121.4C26.1009 121.4 22.4009 122.3 25.2009 123.4C28.0009 124.5 29.2009 124.9 29.2009 124.9C29.2009 124.9 25.9009 125.6 27.5009 126.6C29.2009 127.5 31.0009 127.2 31.0009 127.2C31.0009 127.2 29.7009 128.9 31.0009 128.3C32.3009 127.7 33.8009 126.8 33.8009 126.8C33.8009 126.8 32.7009 128.6 30.1009 128.6C27.5009 128.6 28.4009 128.6 22.9009 128.6C17.4009 128.6 16.8009 128.4 16.5009 129.2C16.2009 130 14.1009 131.2 15.2009 131.8C16.3009 132.4 19.1009 133.6 19.1009 133.6C19.1009 133.6 13.6009 134 12.7009 134.2C11.8009 134.4 9.90088 135.9 11.4009 136.2C12.9009 136.6 16.7009 137.3 16.7009 137.3C16.7009 137.3 17.1009 139.3 19.6009 138.8C22.2009 138.2 24.4009 136.4 24.4009 136.4C24.4009 136.4 19.8009 140.3 21.5009 140.1C23.2009 139.9 23.9009 138.8 23.9009 138.8C23.9009 138.8 24.3009 140.6 25.2009 140.5C26.1009 140.3 27.2009 138.3 27.2009 138.3C27.2009 138.3 27.2009 141.6 27.9009 140.3C28.6009 139 29.2009 137.5 29.2009 137.5C29.2009 137.5 29.6009 140.3 30.1009 138.8C30.7009 137.3 30.8009 135.9 31.9009 134.6C33.0009 133.3 33.9009 132.6 34.3009 131.3C34.7009 130 34.9009 126.7 35.8009 125.2C36.7009 123.7 37.1009 123 37.1009 123C37.1009 123 39.1009 127.6 39.1009 129.3C39.1009 131 38.2009 133.3 38.9009 135.2C39.6009 137 39.5009 139.2 40.2009 138.7C40.9009 138.1 40.9009 136.5 40.9009 136.5C40.9009 136.5 41.3009 139.1 42.0009 139.4C42.7009 139.7 44.4009 138.3 44.4009 138.3C44.4009 138.3 47.2009 142.2 47.9009 142C48.6009 141.8 47.7009 138.5 47.7009 138.5C47.7009 138.5 48.3009 140.3 49.5009 139.4C50.8009 138.5 49.9009 136.5 49.9009 136.5C49.9009 136.5 52.5009 137.8 51.9009 136.3C51.3009 134.8 47.7009 132.4 47.7009 132.4L43.3009 128.2C43.3009 128.2 49.7009 132.1 51.4009 132.2C53.1009 132.4 51.6009 130.5 51.6009 130.5C51.6009 130.5 54.5009 130.1 53.4009 129.2C52.3009 128.3 51.4009 127.9 51.4009 127.9C51.4009 127.9 54.7009 127 53.1009 126.6C51.4009 126.2 48.7009 125.3 48.7009 125.3L51.1009 123.6L45.8009 123.2L41.9009 121.7L40.1009 121.3L38.3009 121.1Z" fill="#36A20C"/>
<path d="M117 10.6999C117 10.6999 114.8 12.1999 112.8 10.6999C110.8 9.19993 110.6 6.79993 107.6 6.69993C104.7 6.49993 101.9 6.69993 98.8002 8.49993C95.7002 10.2999 90.7002 14.7999 88.5002 16.7999C86.3002 18.7999 81.5002 24.4999 81.5002 27.2999C81.5002 30.0999 79.7002 32.7999 78.7002 34.4999C77.7002 36.1999 75.2002 37.0999 75.2002 39.7999C75.2002 42.4999 77.8002 46.1999 78.5002 48.2999C79.2002 50.2999 80.5002 60.7999 84.2002 63.1999C87.9002 65.5999 87.7002 65.7999 91.6002 65.1999C95.5002 64.5999 105.2 58.7999 107.1 56.5999C108.9 54.3999 113.2 49.0999 114.5 48.0999C115.8 47.1999 119.5 44.3999 120.8 41.7999C122.1 39.1999 123 37.5999 124.7 34.9999C126.4 32.3999 128.9 29.6999 129.3 25.9999C129.7 22.2999 127.8 17.3999 124.9 14.9999C121.8 12.4999 120 10.4999 117 10.6999Z" fill="#A68058"/>
<path d="M98.3005 10.5C98.3005 10.5 92.6005 13.4 89.8005 17.3C87.0005 21.2 86.5005 22.5 84.1005 26.3C81.7005 30.2 79.3005 34.2 79.3005 36.2C79.3005 38.2 79.3005 39.7 79.3005 43.2C79.3005 46.7 79.1005 49.8 81.1005 53.1C83.1005 56.4 82.9005 54.8 86.3005 57.3C89.6005 59.9 89.6005 61.3 92.2005 61.9C94.8005 62.5 95.9005 62.3 99.4005 59.9C102.9 57.5 105.7 54 108 52.2C110.4 50.4 114.4 47 116.8 45C119.2 43 120.3 38.2 121.8 35.4C123.3 32.6 125.5 32.1 127.3 28.2C129.1 24.3 126.7 19 123.8 15.3C120.9 11.6 115.9 13.3 112.4 11.4C108.9 9.59997 103.6 7.89997 101.5 8.29997C99.6005 8.89997 98.3005 10.5 98.3005 10.5Z" fill="#F4F4F4"/>
<path d="M122.4 25.9999C122.4 25.9999 124.1 22.0999 123 20.2999C121.9 18.4999 117.7 16.2999 115.6 15.8999C113.6 15.4999 105.7 12.7999 103.3 13.6999C100.9 14.5999 96.9999 16.2999 96.0999 16.4999C95.1999 16.6999 91.8999 18.8999 90.8999 19.5999C89.9999 20.2999 88.8999 22.3999 88.4999 23.2999C88.0999 24.1999 87.3999 26.3999 85.6999 28.2999C83.9999 30.1999 81.0999 39.6999 81.2999 40.2999C81.4999 40.8999 80.8999 47.2999 82.3999 49.0999C83.8999 50.8999 83.4999 51.4999 85.1999 53.0999C86.8999 54.7999 86.6999 53.9999 87.7999 55.8999C88.8999 57.6999 90.3999 59.7999 94.0999 60.0999C97.7999 60.4999 101.6 57.8999 102.7 56.3999C103.8 54.8999 107.5 49.7999 108 49.1999C108.6 48.5999 114.1 44.3999 115.9 41.9999C117.7 39.5999 119.6 36.9999 119.9 35.1999C120.3 33.3999 119.9 31.6999 120.5 31.1999C121.1 30.5999 122.4 25.9999 122.4 25.9999Z" fill="#CBBDAD"/>
<path d="M108.201 13.2999C108.201 13.2999 102.501 11.9999 100.301 12.8999C98.1006 13.7999 95.1006 15.9999 93.3006 16.8999C92.1006 17.4999 90.7006 18.4999 89.8006 19.4999C89.4006 19.9999 89.0006 20.5999 88.9006 21.0999C88.5006 22.7999 85.2006 26.7999 84.1006 29.1999C83.8006 29.7999 83.6006 30.3999 83.4006 30.9999C82.7006 32.9999 82.1006 35.1999 81.5006 36.7999C80.8006 38.7999 81.9006 42.0999 81.9006 43.5999C81.9006 45.0999 81.3006 47.2999 82.5006 48.8999C83.6006 50.5999 83.6006 50.8999 84.7006 51.9999C85.8006 53.0999 82.9006 50.2999 82.9006 46.7999C82.9006 43.2999 82.9006 41.4999 82.7006 38.8999C82.5006 36.2999 84.7006 31.1999 85.3006 29.4999C85.9006 27.7999 87.1006 26.6999 87.9006 25.0999C88.7006 23.4999 89.9006 20.0999 92.1006 19.5999C94.3006 18.9999 97.3006 16.6999 98.9006 15.8999C100.601 15.1999 102.601 13.8999 104.101 14.0999C105.601 14.2999 109.401 15.1999 111.601 15.7999C113.801 16.3999 114.501 15.9999 117.901 17.7999C121.201 19.5999 123.101 21.2999 122.501 23.2999C121.901 25.2999 120.701 26.1999 120.701 26.1999C120.701 26.1999 121.801 27.2999 121.301 29.4999C120.701 31.6999 120.001 35.5999 118.901 37.5999C117.801 39.5999 115.401 43.0999 115.401 43.0999C115.401 43.0999 117.101 42.1999 113.701 44.8999C110.401 47.6999 109.701 48.5999 109.101 49.0999C108.501 49.6999 106.501 50.7999 106.501 51.4999C106.501 52.1999 117.201 44.2999 119.601 38.7999C122.001 33.2999 122.201 30.8999 122.501 28.2999C122.901 25.6999 123.201 24.7999 123.201 24.7999C123.201 24.7999 124.101 23.4999 123.901 21.2999C123.701 19.0999 119.301 15.3999 116.401 14.8999C113.401 14.5999 108.201 13.2999 108.201 13.2999Z" fill="#68574A"/>
<path d="M116.9 19.3999C116.9 19.3999 111.4 17.3999 109.2 17.3999C107 17.3999 103.5 17.9999 102.9 18.8999C102.3 19.7999 101.2 19.4999 100.5 19.9999C99.8004 20.5999 98.8004 20.6999 97.6004 22.5999C96.3004 24.3999 95.2004 26.9999 95.2004 26.9999C95.2004 26.9999 93.2004 28.2999 92.3004 30.8999C91.4004 33.4999 91.6004 36.0999 91.6004 36.9999C91.6004 37.8999 92.3004 37.6999 91.4004 38.9999C90.5004 40.2999 89.7004 39.8999 89.7004 41.7999C89.7004 43.5999 90.1004 47.2999 89.5004 49.6999C88.9004 52.0999 88.6004 52.7999 90.1004 55.1999C91.6004 57.5999 90.7004 57.7999 95.6004 57.7999C100.6 57.7999 103.1 52.7999 104.8 51.3999C106.5 49.8999 108.5 47.3999 111.1 45.2999C113.7 43.2999 115.9 41.2999 115.9 37.5999C115.9 33.8999 118.7 27.2999 118.7 23.9999C118.5 20.4999 116.9 19.3999 116.9 19.3999Z" fill="#68574A"/>
<path d="M116.9 21.3999C116.9 21.3999 111.4 19.3999 109.2 19.3999C107 19.3999 103.5 19.9999 102.9 20.8999C102.3 21.7999 101.2 21.4999 100.5 21.9999C99.8004 22.5999 98.8004 22.6999 97.6004 24.5999C96.3004 26.3999 95.2004 28.9999 95.2004 28.9999C95.2004 28.9999 93.2004 30.2999 92.3004 32.8999C91.4004 35.4999 91.6004 38.0999 91.6004 38.9999C91.6004 39.8999 92.3004 39.6999 91.4004 40.9999C90.5004 42.2999 89.7004 41.8999 89.7004 43.7999C89.7004 45.5999 90.1004 49.2999 89.5004 51.6999C88.9004 54.0999 88.6004 54.7999 90.1004 57.1999C91.6004 59.5999 90.7004 59.7999 95.6004 59.7999C100.6 59.7999 103.1 54.7999 104.8 53.3999C106.5 51.8999 108.5 49.3999 111.1 47.2999C113.7 45.2999 115.9 43.2999 115.9 39.5999C115.9 35.8999 118.7 29.2999 118.7 25.9999C118.5 22.4999 116.9 21.3999 116.9 21.3999Z" fill="#C0A384"/>
<path d="M110.901 36.5C112.447 36.5 113.701 35.6046 113.701 34.5C113.701 33.3954 112.447 32.5 110.901 32.5C109.354 32.5 108.101 33.3954 108.101 34.5C108.101 35.6046 109.354 36.5 110.901 36.5Z" fill="#F4F4F4"/>
<path d="M96.9006 46C98.1708 46 99.2006 45.3284 99.2006 44.5C99.2006 43.6716 98.1708 43 96.9006 43C95.6303 43 94.6006 43.6716 94.6006 44.5C94.6006 45.3284 95.6303 46 96.9006 46Z" fill="#F4F4F4"/>
<path d="M106.7 25.1C107.805 25.1 108.7 24.518 108.7 23.8C108.7 23.082 107.805 22.5 106.7 22.5C105.596 22.5 104.7 23.082 104.7 23.8C104.7 24.518 105.596 25.1 106.7 25.1Z" fill="#F4F4F4"/>
<path d="M50.7007 158C50.7007 158 52.8007 156.4 54.9007 157.8C57.0007 159.2 57.3007 161.6 60.2007 161.6C63.1007 161.6 65.9007 161.3 68.9007 159.3C71.9007 157.3 76.7007 152.7 78.8007 150.5C80.9007 148.4 85.4007 142.5 85.3007 139.7C85.2007 136.9 86.9007 134.1 87.7007 132.4C88.5007 130.7 91.1007 129.7 90.9007 126.9C90.8007 124.1 88.0007 120.6 87.2007 118.6C86.4007 116.6 84.6007 106.2 80.8007 104C77.0007 101.8 77.2007 101.6 73.4007 102.3C69.6007 103 60.1007 109.4 58.4007 111.7C56.7007 114 52.7007 119.5 51.4007 120.5C50.2007 121.5 46.6007 124.4 45.4007 127C44.2007 129.6 43.4007 131.3 41.9007 134C40.4007 136.7 37.9007 139.5 37.7007 143.2C37.5007 146.9 39.6007 151.8 42.6007 154C45.8007 156.4 47.7007 158.3 50.7007 158Z" fill="#A68058"/>
<path d="M69.4007 157.3C69.4007 157.3 75.0007 154.1 77.5007 150.1C80.1007 146.1 80.6007 144.8 82.8007 140.8C85.0007 136.8 87.2007 132.7 87.1007 130.7C87.0007 128.7 86.9007 127.2 86.8007 123.7C86.6007 120.2 86.7007 117.1 84.5007 113.9C82.3007 110.7 82.6007 112.3 79.2007 109.9C75.8007 107.5 75.7007 106 73.1007 105.6C70.5007 105.2 69.4007 105.4 66.0007 108C62.6007 110.6 60.0007 114.2 57.7007 116.1C55.4007 118 51.5007 121.5 49.2007 123.7C46.9007 125.8 46.0007 130.7 44.7007 133.5C43.4007 136.3 41.2007 137 39.5007 140.9C37.8007 144.8 40.5007 150.1 43.6007 153.6C46.7007 157.1 51.6007 155.3 55.2007 156.9C58.8007 158.6 64.2007 160 66.2007 159.5C68.2007 159 69.4007 157.3 69.4007 157.3Z" fill="#F4F4F4"/>
<path d="M44.6003 143C44.6003 143 43.1003 146.9 44.3003 148.7C45.5003 150.5 49.8003 152.5 51.9003 152.8C53.9003 153.1 62.0003 155.5 64.3003 154.4C66.6003 153.4 70.4003 151.5 71.3003 151.3C72.2003 151.1 75.4003 148.7 76.3003 147.9C77.2003 147.1 78.2003 145 78.5003 144.1C78.8003 143.2 79.5003 140.9 81.0003 139C82.6003 137.1 85.1003 127.4 84.9003 126.8C84.7003 126.3 84.9003 119.8 83.4003 118C81.8003 116.2 82.2003 115.7 80.5003 114.1C78.8003 112.5 79.0003 113.2 77.8003 111.5C76.6003 109.7 75.0003 107.8 71.4003 107.6C67.7003 107.4 64.0003 110.2 62.9003 111.7C61.9003 113.2 58.4003 118.5 57.9003 119.1C57.4003 119.7 52.1003 124.2 50.3003 126.6C48.6003 129.1 46.9003 131.7 46.6003 133.6C46.3003 135.5 46.8003 137.1 46.2003 137.7C45.7003 138.3 44.6003 143 44.6003 143Z" fill="#CBBDAD"/>
<path d="M59.4009 155C59.4009 155 65.2009 156 67.3009 155C69.5009 154 72.3009 151.6 74.1009 150.6C75.3009 149.9 76.7009 148.9 77.5009 147.8C77.9009 147.3 78.2009 146.7 78.3009 146.2C78.6009 144.5 81.7009 140.3 82.7009 137.9C82.9009 137.3 83.1009 136.7 83.3009 136.1C83.9009 134 84.4009 131.8 84.9009 130.2C85.5009 128.1 84.3009 124.9 84.2009 123.4C84.1009 121.9 84.6009 119.7 83.4009 118.1C82.2009 116.5 82.2009 116.1 81.0009 115.1C79.8009 114 82.9009 116.7 83.1009 120.2C83.3009 123.7 83.3009 125.5 83.7009 128.1C84.0009 130.7 82.0009 135.9 81.6009 137.6C81.1009 139.3 79.9009 140.4 79.2009 142.1C78.5009 143.8 77.4009 147.2 75.2009 147.8C73.0009 148.5 70.2009 151 68.6009 151.8C67.0009 152.6 65.0009 154 63.5009 153.9C62.0009 153.8 58.1009 153 55.9009 152.6C53.7009 152.2 53.0009 152.6 49.6009 150.9C46.2009 149.2 44.3009 147.6 44.7009 145.6C45.2009 143.6 46.4009 142.6 46.4009 142.6C46.4009 142.6 45.2009 141.5 45.7009 139.3C46.1009 137.1 46.7009 133.2 47.7009 131.1C48.7009 129 50.9009 125.4 50.9009 125.4C50.9009 125.4 49.3009 126.4 52.5009 123.5C55.7009 120.6 56.4009 119.6 56.9009 119.1C57.4009 118.6 59.4009 117.3 59.4009 116.6C59.4009 115.9 49.1009 124.3 46.9009 129.9C44.8009 135.5 44.7009 137.9 44.4009 140.5C44.2009 143.1 43.8009 144 43.8009 144C43.8009 144 42.9009 145.3 43.2009 147.5C43.5009 149.7 48.1009 153.2 51.0009 153.6C54.2009 154 59.4009 155 59.4009 155Z" fill="#68574A"/>
<path d="M50.4003 149.3C50.4003 149.3 56.0003 151.1 58.2003 151C60.4003 150.9 63.9003 150.2 64.4003 149.2C64.9003 148.3 66.0003 148.6 66.7003 148C67.4003 147.4 68.3003 147.2 69.5003 145.3C70.7003 143.4 71.7003 140.8 71.7003 140.8C71.7003 140.8 73.7003 139.4 74.5003 136.8C75.3003 134.2 75.0003 131.6 75.0003 130.7C75.0003 129.8 74.2003 130 75.1003 128.7C76.0003 127.4 76.7003 127.7 76.6003 125.9C76.5003 124.1 76.0003 120.4 76.4003 118C76.8003 115.6 77.2003 114.8 75.6003 112.5C74.0003 110.2 74.9003 110 70.0003 110.2C65.0003 110.4 62.7003 115.5 61.1003 117.1C59.5003 118.6 57.6003 121.3 55.1003 123.5C52.6003 125.6 50.5003 127.8 50.7003 131.4C50.9003 135.1 48.4003 141.8 48.6003 145.1C48.8003 148.4 50.4003 149.3 50.4003 149.3Z" fill="#68574A"/>
<path d="M50.3007 147.3C50.3007 147.3 55.9007 149.1 58.1007 149C60.3007 148.9 63.8007 148.2 64.3007 147.2C64.8007 146.3 65.9007 146.6 66.6007 146C67.3007 145.4 68.2007 145.2 69.4007 143.3C70.6007 141.4 71.6007 138.8 71.6007 138.8C71.6007 138.8 73.6007 137.4 74.4007 134.8C75.2007 132.2 74.9007 129.6 74.9007 128.7C74.9007 127.8 74.1007 128 75.0007 126.7C75.9007 125.4 76.6007 125.7 76.5007 123.9C76.4007 122.1 75.9007 118.4 76.3007 116C76.7007 113.6 77.1007 112.8 75.5007 110.5C73.9007 108.2 74.8007 108 69.9007 108.2C64.9007 108.4 62.6007 113.5 61.0007 115.1C59.4007 116.6 57.5007 119.3 55.0007 121.5C52.5007 123.6 50.4007 125.8 50.6007 129.4C50.8007 133.1 48.3007 139.8 48.5007 143.1C48.6007 146.3 50.3007 147.3 50.3007 147.3Z" fill="#C0A384"/>
<path d="M52.9004 134.1C52.8004 133 54.0003 132 55.6003 132C57.1003 131.9 58.4004 132.8 58.4004 133.9C58.5004 135 57.3004 136 55.7004 136C54.2004 136 53.0004 135.2 52.9004 134.1Z" fill="#F4F4F4"/>
<path d="M66.9004 123.4C66.9004 122.6 67.8004 121.9 69.1004 121.8C70.3004 121.7 71.4004 122.4 71.4004 123.2C71.4004 124 70.5004 124.7 69.2004 124.8C68.0004 124.8 67.0004 124.2 66.9004 123.4Z" fill="#F4F4F4"/>
<path d="M58.4004 144.6C58.4004 143.9 59.2004 143.3 60.3004 143.3C61.4004 143.2 62.3004 143.8 62.4004 144.5C62.5004 145.2 61.6004 145.8 60.5004 145.8C59.4004 145.8 58.5004 145.3 58.4004 144.6Z" fill="#F4F4F4"/>
<path d="M8.00074 95.1998C8.00074 95.1998 10.0007 96.1998 9.70074 98.3998C9.40074 100.5 7.70074 101.6 8.80074 103.9C9.90074 106.2 11.1007 108.2 13.8007 109.7C16.5007 111.3 21.8007 113.2 24.2007 114C26.6007 114.8 32.8007 116 34.9007 114.9C37.0007 113.8 39.8007 114 41.4007 114C43.0007 114 44.8007 115.6 46.8007 114.4C48.9007 113.3 50.6007 109.8 51.8007 108.4C53.0007 107 60.3007 101.7 60.6007 97.9998C60.9007 94.2998 61.1007 94.2998 59.1007 91.6998C57.1007 88.9998 48.7007 84.1998 46.3007 83.6998C43.9007 83.1998 38.2007 82.2998 37.0007 81.6998C35.8007 81.0998 32.2007 79.4998 29.8007 79.5998C27.3007 79.6998 25.7007 79.6998 23.1007 79.4998C20.5007 79.2998 17.4007 78.4998 14.5007 79.7998C11.6007 80.9998 8.60074 84.4998 8.10074 87.5998C7.60074 90.6998 6.70074 93.0998 8.00074 95.1998Z" fill="#AE8300"/>
<path d="M15.6009 109.3C15.6009 109.3 20.1009 112.4 24.2009 112.8C28.2009 113.3 29.4009 113.2 33.3009 113.4C37.2009 113.6 41.2009 113.7 42.7009 112.9C44.2009 112.1 45.3009 111.5 47.9009 110C50.5009 108.6 52.9009 107.4 54.6009 104.5C56.2009 101.6 55.1009 102.4 55.6009 98.8997C56.2009 95.3997 57.3009 94.7997 56.6009 92.5997C56.0009 90.3997 55.4009 89.6997 52.1009 88.0997C48.9009 86.4997 45.1009 85.7997 42.8009 84.7997C40.4009 83.7997 36.3009 82.0997 33.8009 81.1997C31.3009 80.1997 27.3009 81.3997 24.6009 81.3997C21.9009 81.3997 20.6009 79.9997 17.0009 80.1997C13.4009 80.3997 10.4009 84.3997 8.80086 88.0997C7.30086 91.7997 10.5009 94.7997 10.6009 98.1997C10.7009 101.6 11.6009 106.2 12.7009 107.6C13.9009 109 15.6009 109.3 15.6009 109.3Z" fill="#F4F4F4"/>
<path d="M17.3008 84.8999C17.3008 84.8999 13.7008 85.2999 12.8008 86.7999C11.9008 88.3999 12.0008 92.4999 12.5008 94.0999C13.1008 95.7999 14.2008 102.8 15.9008 104.2C17.6008 105.6 20.4008 107.8 20.9008 108.4C21.4008 109 24.4008 110.6 25.4008 111C26.3008 111.4 28.3008 111.4 29.1008 111.3C29.9008 111.2 31.9008 110.8 33.9008 111.3C36.0008 111.8 44.3008 110 44.7008 109.7C45.0008 109.3 50.1007 107.1 50.8008 105.2C51.6007 103.3 52.1008 103.4 52.7008 101.5C53.3008 99.5999 52.8008 99.9999 53.7008 98.3999C54.6008 96.7999 55.5008 94.8999 54.3008 91.9999C53.1007 89.0999 49.6007 87.2999 48.0008 87.0999C46.4008 86.8999 41.1008 86.1999 40.4008 86.0999C39.8008 85.8999 34.3008 83.4999 31.8008 83.0999C29.3008 82.6999 26.6008 82.3999 25.1008 82.8999C23.6008 83.3999 22.5008 84.2999 21.8008 84.1999C21.2008 83.9999 17.3008 84.8999 17.3008 84.8999Z" fill="#CBBDAD"/>
<path d="M13.6007 100.7C13.6007 100.7 15.0007 105.5 16.6007 106.8C18.2007 108.1 21.1007 109.4 22.5007 110.4C23.5007 111.1 24.8007 111.7 25.9007 112C26.5007 112.1 27.0007 112.1 27.5007 112C28.9007 111.6 33.3007 112.4 35.5007 112.2C36.0007 112.2 36.6007 112.1 37.1007 112C38.9007 111.7 40.8007 111.2 42.2007 111C44.0007 110.7 46.0007 108.5 47.1007 107.9C48.2007 107.3 50.1007 106.8 50.9007 105.3C51.7007 103.8 52.0007 103.6 52.3007 102.4C52.7007 101.1 51.8007 104.5 49.2007 105.9C46.6007 107.3 45.2007 108.1 43.4007 109.3C41.6007 110.5 36.8007 111 35.3007 111.2C33.8007 111.5 32.5007 111 30.9007 111.1C29.4007 111.2 26.4007 111.6 25.0007 110.2C23.7007 108.8 20.7007 107.6 19.5007 106.6C18.3007 105.7 16.5007 104.7 16.0007 103.5C15.5007 102.3 14.6007 99.0999 14.1007 97.1999C13.6007 95.2999 13.0007 94.8999 13.0007 91.6999C13.0007 88.4999 13.5007 86.3999 15.2007 85.9999C16.9007 85.5999 18.2007 86.1999 18.2007 86.1999C18.2007 86.1999 18.6007 84.8999 20.4007 84.3999C22.3007 83.8999 25.5007 82.8999 27.4007 82.8999C29.4007 82.8999 33.0007 83.1999 33.0007 83.1999C33.0007 83.1999 31.6007 82.2999 35.1007 83.6999C38.5007 84.9999 39.5007 85.1999 40.2007 85.3999C40.8007 85.5999 42.5007 86.5999 43.0007 86.2999C43.5007 85.9999 33.3007 81.2999 28.1007 81.7999C23.0007 82.2999 21.1007 83.0999 19.1007 83.8999C17.1007 84.6999 16.2007 84.7999 16.2007 84.7999C16.2007 84.7999 14.9007 84.5999 13.3007 85.6999C11.7007 86.6999 10.8007 91.5999 11.6007 93.9999C12.4007 96.3999 13.6007 100.7 13.6007 100.7Z" fill="#68574A"/>
<path d="M14.6006 91.7999C14.6006 91.7999 15.4006 96.7999 16.3006 98.3999C17.2006 99.9999 19.1006 102.4 20.0006 102.5C20.9006 102.5 21.1006 103.5 21.8006 103.8C22.5006 104.1 23.0006 104.7 24.9006 104.9C26.8006 105.1 29.2006 104.9 29.2006 104.9C29.2006 104.9 31.0006 105.9 33.3006 105.5C35.6006 105.1 37.5006 103.9 38.1006 103.6C38.8006 103.2 38.3006 102.7 39.7006 102.9C41.0006 103.1 41.1006 103.8 42.4006 103C43.8006 102.2 46.4006 100.5 48.4006 99.8999C50.4006 99.2999 51.1006 99.2999 52.3006 97.1999C53.5006 95.0999 54.0006 95.6999 52.0006 91.9999C50.0006 88.2999 45.2006 88.3999 43.4006 87.7999C41.6006 87.1999 38.9006 86.6999 36.3006 85.5999C33.7006 84.4999 31.3006 83.6999 28.6006 85.1999C25.9006 86.6999 19.8006 87.3999 17.3006 88.6999C14.7006 90.0999 14.6006 91.7999 14.6006 91.7999Z" fill="#68574A"/>
<path d="M16.1006 90.9999C16.1006 90.9999 16.9006 95.9999 17.8006 97.5999C18.7006 99.1999 20.6006 101.6 21.5006 101.7C22.4006 101.7 22.6006 102.7 23.3006 103C24.0006 103.3 24.5006 103.9 26.4006 104.1C28.3006 104.3 30.7006 104.1 30.7006 104.1C30.7006 104.1 32.5006 105.1 34.8006 104.7C37.1006 104.3 39.0006 103.1 39.6006 102.8C40.3006 102.4 39.8006 101.9 41.2006 102.1C42.5006 102.3 42.6006 103 43.9006 102.2C45.3006 101.4 47.9006 99.6999 49.9006 99.0999C51.9006 98.4999 52.6006 98.4999 53.8006 96.3999C55.0006 94.2999 55.5006 94.8999 53.5006 91.1999C51.5006 87.4999 46.7006 87.5999 44.9006 86.9999C43.1006 86.3999 40.4006 85.8999 37.8006 84.7999C35.2006 83.6999 32.8006 82.8999 30.1006 84.3999C27.4006 85.8999 21.3006 86.5999 18.8006 87.8999C16.2006 89.2999 16.1006 90.9999 16.1006 90.9999Z" fill="#C0A384"/>
<path d="M27.201 87.8999C28.001 87.3999 29.201 87.9999 29.801 89.0999C30.401 90.1999 30.301 91.4999 29.401 91.9999C28.501 92.4999 27.401 91.8999 26.801 90.7999C26.201 89.6999 26.401 88.3999 27.201 87.8999Z" fill="#F4F4F4"/>
<path d="M40.6012 94.6997C41.2012 94.3997 42.1012 94.7997 42.6012 95.7997C43.1012 96.6997 43.0012 97.7997 42.4012 98.0997C41.8012 98.3997 40.9012 97.9997 40.4012 96.9997C39.9012 95.9997 40.0012 94.9997 40.6012 94.6997Z" fill="#F4F4F4"/>
<path d="M21.201 96.0997C21.701 95.7997 22.501 96.2997 23.001 97.0997C23.501 97.8997 23.401 98.7997 22.901 99.0997C22.401 99.3997 21.601 98.8997 21.101 98.0997C20.701 97.2997 20.701 96.3997 21.201 96.0997Z" fill="#F4F4F4"/>
<path d="M112.8 66.5C112.8 66.5 111.3 67.8 108.8 68.2C106.2 68.6 104.9 68.2 102.4 68.4C99.8002 68.6 97.6002 69.9 98.4002 73.4C99.1002 76.9 102.6 82.2 104.5 85.5C106.3 88.8 105.6 91 106.3 93C107 95 109.4 95.8 111.1 97.4C112.8 99.1 114.6 101.3 115.7 102.2C116.8 103.1 117.7 103.3 118.5 103.9C119.2 104.5 118.7 105.7 120.5 105.7C122.3 105.7 122.7 106.3 123.3 105.1C123.9 104 123.7 102.2 124.4 101.2C125.1 100.3 127.7 99.2 129.7 98.6C131.7 98 133.9 97.1 134.7 97.1C135.4 97.1 137.1 97.5 138.6 98C140.1 98.6 141.2 98.9 142.5 99.3C143.8 99.7 144.3 100 146 100C147.7 100 148.2 100.2 149.7 100C151.2 99.8 151.9 99.1 152.6 98.7C153.3 98.3 153 98.7 154.4 98C155.9 97.3 157 96.3 157.7 96C158.4 95.6 159.7 94.2 159.7 94.2C159.7 94.2 160.1 92.4 160.1 91.4C160.1 90.4 159.9 89.9 160.5 89.7C161.1 89.5 162 88.6 162 87.7C162 86.8 162 85.7 162 84.4C162 83.1 162 81.5 162 81.5C162 81.5 161.8 80.9 161.6 79.8C161.4 78.7 161.4 77.8 161.2 77.2C161 76.6 159.9 74.4 159.4 73.7C158.8 73 156.1 70.4 155.5 69.8C154.9 69.2 153.1 67.2 151.8 66.9C150.5 66.5 146.5 64.7 145.7 64.5C144.9 64.3 141.5 62.7 139.8 62.7C138.1 62.7 135.2 62.5 133.5 62.5C131.8 62.5 130.4 62.5 128 62.9C125.6 63.3 124.1 64 122.5 64C120.9 64 120.8 63.8 119.2 64.2C117.4 64.6 112.8 66.5 112.8 66.5Z" fill="#A68058"/>
<path d="M158.6 84.3001C158.6 81.9001 158.8 82.1001 158 79.5001C157.3 76.9001 156.7 74.3001 156.7 74.3001C156.7 74.3001 157.1 73.1001 157 71.6001C156.2 70.8001 155.5 70.1001 155.2 69.9001C154.6 69.3001 152.8 67.3001 151.5 67.0001C150.2 66.6001 146.2 64.8001 145.4 64.6001C144.6 64.4001 141.2 62.8001 139.5 62.8001C137.8 62.8001 134.9 62.6001 133.2 62.6001C131.5 62.6001 130.1 62.6001 127.7 63.0001C125.3 63.4001 123.8 64.1001 122.2 64.1001C120.5 64.1001 120.5 63.9001 118.9 64.3001C118.5 64.4001 118 64.5001 117.4 64.7001L117.3 64.8001C117.3 64.8001 116.9 66.3001 115.8 66.8001C114.7 67.4001 110.3 69.0001 108.1 69.7001C105.9 70.4001 104.1 70.3001 103.7 72.5001C103.3 74.7001 101.3 77.5001 103.9 80.6001C106.5 83.7001 106.8 85.2001 109.8 88.1001C112.7 91.0001 114.2 92.5001 117.2 95.1001C120.1 97.7001 120.5 97.9001 123.8 97.9001C127.1 97.9001 132.6 95.9001 133.7 95.9001C134.8 95.9001 136.1 95.3001 137.2 95.3001C138.3 95.3001 139.8 95.7001 139.8 96.2001C139.8 96.8001 139.6 97.7001 142.4 98.6001C145.2 99.5001 148.3 99.9001 150.3 99.3001C151.5 99.0001 153.9 97.9001 155.9 97.0001C156.5 96.6001 157.1 96.2001 157.5 96.0001C158.2 95.6001 159.5 94.2001 159.5 94.2001C159.5 94.2001 159.9 92.4001 159.9 91.4001C159.9 90.5001 159.7 89.9001 160.3 89.7001C160.9 89.5001 161.8 88.6001 161.8 87.7001C159 86.7001 158.6 86.7001 158.6 84.3001Z" fill="#F4F4F4"/>
<path d="M106.2 71.7999C106.2 71.7999 106.2 78.7999 106.4 80.7999C106.6 82.7999 111.2 87.9999 113.8 89.5999C116.4 91.1999 119.9 93.7999 121.9 94.1999C123.9 94.5999 122.5 94.1999 125.4 94.5999C128.3 94.9999 127.8 95.8999 130.4 94.7999C133 93.6999 135.9 93.2999 136.7 93.2999C137.5 93.2999 137.4 92.5999 140 93.6999C142.6 94.7999 143.5 94.7999 144.6 94.7999C145.7 94.7999 149.8 95.4999 151.4 94.9999C153.1 94.3999 156.2 92.5999 156.9 90.7999C157.6 88.9999 158 86.3999 157.5 83.3999C156.9 80.4999 155.5 77.6999 155.5 77.6999C155.5 77.6999 154.6 75.6999 153.3 73.9999C152 72.2999 150.5 70.2999 148.5 69.5999C146.5 68.8999 141.3 67.3999 140.8 67.3999C140.2 67.3999 134.7 66.4999 132.9 66.2999C131.1 66.0999 127.9 65.8999 126.8 66.0999C125.7 66.2999 122.6 67.5999 121.8 68.0999C121.1 68.6999 120.5 68.7999 118.7 69.1999C116.9 69.5999 115.8 69.5999 114.5 69.5999C113.2 69.5999 113.4 69.3999 111.7 69.9999C109.9 70.4999 106.4 69.9999 106.2 71.7999Z" fill="#C0A384"/>
<path d="M130.3 94.8C130.3 94.8 130.2 93 136.2 91.5C142.2 90 144.2 85 144.2 85C144.2 85 146.2 85 146.2 86.5C146.2 88 143.2 90.5 143.2 90.5C143.2 90.5 147.7 91.5 150.2 89C152.7 86.5 155.7 87.5 152.7 82.5C149.7 77.5 146.2 77 145.7 75C145.2 73 149.7 73 153.2 77.5C156.7 82 159.2 86.5 156.2 88.5C153.2 90.5 149.2 93 145.7 93C142.2 93 132.4 93.1 130.3 94.8Z" fill="#68574A"/>
<path d="M133.7 79.1C135.633 79.1 137.2 77.8464 137.2 76.3C137.2 74.7536 135.633 73.5 133.7 73.5C131.767 73.5 130.2 74.7536 130.2 76.3C130.2 77.8464 131.767 79.1 133.7 79.1Z" fill="#F4F4F4"/>
<path d="M129.901 89.1C130.895 89.1 131.701 88.518 131.701 87.8C131.701 87.082 130.895 86.5 129.901 86.5C128.906 86.5 128.101 87.082 128.101 87.8C128.101 88.518 128.906 89.1 129.901 89.1Z" fill="#F4F4F4"/>
<path d="M114.2 77.6C114.752 77.6 115.2 77.2418 115.2 76.8C115.2 76.3582 114.752 76 114.2 76C113.648 76 113.2 76.3582 113.2 76.8C113.2 77.2418 113.648 77.6 114.2 77.6Z" fill="#F4F4F4"/>
<path d="M132.701 82C128.701 80 120.701 87.5 117.701 87.5C115.701 87.5 110.501 84.6 107.101 82.5C108.501 84.9 111.701 88.3 113.801 89.6C114.201 89.8 114.501 90.1 114.901 90.3C118.901 91.9 124.501 93.7 128.201 92.9C134.501 91.8 136.701 84 132.701 82Z" fill="#E6DAC0"/>
<path d="M46.9004 76.9999C46.9004 76.9999 48.8004 76.5998 51.2004 77.4999C53.6004 78.3999 54.6004 79.3999 56.9004 80.3999C59.2004 81.4999 61.8004 81.3999 62.8004 77.9999C63.8004 74.5998 63.4004 68.1999 63.3004 64.3999C63.3004 60.5999 65.0004 58.9999 65.3004 56.8999C65.6004 54.7999 63.9004 52.9999 63.2004 50.6999C62.6004 48.4999 62.0004 45.5998 61.5004 44.2999C61.0004 42.9999 60.3004 42.3999 59.9004 41.4999C59.5004 40.6999 60.6004 39.7999 59.0004 38.8999C57.4004 37.9999 57.3004 37.3998 56.3004 38.0998C55.3004 38.7998 54.6004 40.4999 53.5004 40.8999C52.4004 41.2999 49.6004 41.0998 47.6004 40.5998C45.6004 40.0998 43.2004 39.7999 42.5004 39.4999C41.9004 39.0999 40.6004 37.9999 39.6004 36.7998C38.6004 35.5998 37.8004 34.7998 36.8004 33.7998C35.9004 32.8998 35.5004 32.2999 34.1004 31.4999C32.7004 30.6999 32.3004 30.2999 30.9004 29.6999C29.5004 29.1999 28.5004 29.3999 27.7004 29.3999C26.9004 29.3999 27.4004 29.1999 25.7004 29.1999C24.1004 29.0999 22.6004 29.3999 21.8004 29.3999C21.0004 29.3999 19.1004 29.9999 19.1004 29.9999C19.1004 29.9999 17.9004 31.3999 17.4004 32.1999C17.0004 32.9999 16.9004 33.5999 16.3004 33.4999C15.7004 33.3999 14.5004 33.7998 14.0004 34.5998C13.6004 35.3998 13.0004 36.3999 12.4004 37.4999C11.8004 38.5999 11.0004 40.0998 11.0004 40.0998C11.0004 40.0998 10.9004 40.6999 10.5004 41.6999C10.1004 42.7999 9.70041 43.5998 9.60041 44.0998C9.50041 44.6999 9.40041 47.0999 9.50041 47.9999C9.60041 48.8999 10.8004 52.4999 11.0004 53.1999C11.2004 53.8999 11.8004 56.5998 12.8004 57.5998C13.7004 58.4998 16.4004 62.0998 17.0004 62.5998C17.6004 63.0998 19.8004 66.2999 21.3004 67.0998C22.7004 67.8998 25.2004 69.4999 26.7004 70.2999C28.1004 71.0999 29.4004 71.7999 31.7004 72.5998C34.0004 73.3998 35.6004 73.4999 37.1004 74.2999C38.5004 75.0999 38.5004 75.2998 40.1004 75.6998C41.7004 76.0998 46.9004 76.9999 46.9004 76.9999Z" fill="#AE8300"/>
<path d="M15.4006 39.1999C14.2006 41.2999 14.2006 40.9999 13.6006 43.6999C13.0006 46.2999 12.2006 48.7999 12.2006 48.7999C12.2006 48.7999 11.3006 49.6999 10.6006 50.9999C10.9006 51.9999 11.2006 52.9999 11.3006 53.3999C11.5006 54.0999 12.1006 56.7999 13.1006 57.7999C14.0006 58.6999 16.7006 62.2999 17.3006 62.7999C17.9006 63.2999 20.1006 66.4999 21.6006 67.2999C23.0006 68.0999 25.5006 69.6999 27.0006 70.4999C28.4006 71.2999 29.7006 71.9999 32.0006 72.7999C34.3006 73.5999 35.9006 73.6999 37.4006 74.4999C38.8006 75.2999 38.8006 75.4999 40.4006 75.8999C40.8006 75.9999 41.3006 76.0999 42.0006 76.1999H42.2006C42.2006 76.1999 43.2006 75.0999 44.5006 75.0999C45.7006 75.1999 50.4006 75.7999 52.7006 76.2999C55.0006 76.6999 56.5006 77.7999 57.9006 75.9999C59.3006 74.1999 62.4006 72.7999 61.6006 68.7999C60.9006 64.7999 61.2006 63.3999 60.1006 59.3999C58.9006 55.3999 58.4006 53.3999 57.0006 49.6999C55.6006 45.9999 55.4006 45.6999 52.5006 44.0999C49.6006 42.4999 43.8006 41.5999 42.8006 41.0999C41.8006 40.5999 40.4006 40.3999 39.5006 39.8999C38.5006 39.3999 37.4006 38.2999 37.7006 37.8999C38.0006 37.3999 38.6006 36.6999 36.6006 34.5999C34.6006 32.4999 32.1006 30.5999 30.0006 30.0999C28.8006 29.7999 26.2006 29.5999 24.0006 29.3999C23.2006 29.4999 22.6006 29.4999 22.2006 29.4999C21.4006 29.4999 19.5006 30.0999 19.5006 30.0999C19.5006 30.0999 18.3006 31.4999 17.8006 32.2999C17.4006 33.0999 17.3006 33.6999 16.7006 33.5999C16.1006 33.4999 14.9006 33.8999 14.4006 34.6999C16.2006 36.9999 16.5006 37.0999 15.4006 39.1999Z" fill="#F4F4F4"/>
<path d="M55.2006 75.4998C55.2006 75.4998 58.6006 69.3998 59.4006 67.4998C60.2006 65.5998 58.7006 58.8998 57.2006 56.1998C55.7006 53.4998 53.9006 49.5998 52.3006 48.2998C50.7006 46.9998 51.8006 47.9998 49.4006 46.2998C47.0006 44.5998 47.9006 43.9998 45.1006 43.6998C42.3006 43.3998 39.6006 42.2998 38.9006 41.9998C38.3006 41.5998 37.9006 42.2998 36.2006 40.0998C34.5006 37.8998 33.7006 37.3998 32.7006 36.8998C31.7006 36.3998 28.5006 33.7998 26.8006 33.4998C25.1006 33.1998 21.5006 33.2998 19.9006 34.4998C18.4006 35.7998 16.8006 37.7998 15.9006 40.6998C15.0006 43.4998 14.9006 46.6998 14.9006 46.6998C14.9006 46.6998 14.7006 48.8998 15.1006 50.9998C15.4006 53.0998 15.7006 55.5998 17.2006 57.1998C18.6006 58.7998 22.4006 62.5998 22.9006 62.8998C23.4006 63.1998 27.8006 66.5998 29.3006 67.6998C30.8006 68.6998 33.5006 70.3998 34.5006 70.7998C35.6006 71.1998 38.9006 71.5998 39.8006 71.3998C40.7006 71.2998 41.3006 71.3998 43.1006 71.8998C44.9006 72.4998 45.9006 72.9998 47.0006 73.5998C48.1006 74.1998 47.9006 74.2998 49.6006 74.5998C51.4006 74.8998 54.2006 76.9998 55.2006 75.4998Z" fill="#C0A384"/>
<path d="M45.3008 43.6999C45.3008 43.6999 44.5008 45.2999 38.6008 43.6999C32.6008 42.0999 28.5008 45.4999 28.5008 45.4999C28.5008 45.4999 26.7008 44.4999 27.5008 43.1999C28.2008 41.8999 32.1008 41.0999 32.1008 41.0999C32.1008 41.0999 28.6008 38.0999 25.2008 38.9999C21.8008 39.9999 19.7008 37.6999 19.9008 43.4999C20.1008 49.2999 22.9008 51.4999 22.4008 53.3999C21.9008 55.3999 17.9008 53.1999 17.0008 47.5999C16.0008 42.1999 16.0008 36.9999 19.6008 36.6999C23.2008 36.3999 27.9008 36.0999 31.0008 37.7999C34.0008 39.5999 42.6008 44.1999 45.3008 43.6999Z" fill="#68574A"/>
<path d="M30.3002 56.5999C31.0002 55.2999 33.0002 54.8999 34.7002 55.8999C36.4002 56.7999 37.2002 58.6999 36.4002 59.9999C35.7002 61.2999 33.7002 61.6999 32.0002 60.6999C30.3002 59.7999 29.5002 57.9999 30.3002 56.5999Z" fill="#F4F4F4"/>
<path d="M43.7027 50.8944C44.0496 50.2657 43.6643 49.3884 42.8422 48.9348C42.0201 48.4813 41.0725 48.6232 40.7257 49.2519C40.3788 49.8805 40.7641 50.7578 41.5862 51.2114C42.4083 51.665 43.3559 51.5231 43.7027 50.8944Z" fill="#F4F4F4"/>
<path d="M49.8003 66.7999C50.0003 66.3999 50.6003 66.3999 51.0003 66.5999C51.5003 66.8999 51.7003 67.3999 51.5003 67.6999C51.3003 68.0999 50.7003 68.0999 50.3003 67.8999C49.8003 67.6999 49.6003 67.1999 49.8003 66.7999Z" fill="#F4F4F4"/>
<path d="M37.0004 53.7998C39.5004 57.4998 50.2004 54.7998 52.8004 56.1998C54.5004 57.0998 57.7004 62.1998 59.7004 65.6998C59.6004 62.8998 58.4004 58.3998 57.3004 56.2998C57.1004 55.8998 56.9004 55.4998 56.7004 55.0998C53.9004 51.7998 49.9004 47.4998 46.3004 46.3998C40.1004 44.2998 34.5004 50.0998 37.0004 53.7998Z" fill="#E6DAC0"/>
<path d="M108.3 102.1C108.3 102.1 106.4 102.2 104.3 100.9C102.1 99.6 101.4 98.6 99.3003 97.2C97.2003 95.8 94.8003 95.4 93.3003 98.5C91.8003 101.6 91.2003 107.7 90.6003 111.3C90.0003 114.9 88.1003 116.1 87.5003 118.1C86.8003 120.1 88.2003 122.1 88.5003 124.3C88.8003 126.5 88.8003 129.3 89.1003 130.7C89.4003 132.1 90.0003 132.7 90.2003 133.6C90.4003 134.5 89.2003 135.1 90.6003 136.2C92.0003 137.3 91.9003 137.9 93.0003 137.4C94.1003 136.9 95.0003 135.4 96.1003 135.1C97.2003 134.8 99.8003 135.6 101.7 136.3C103.6 137.1 105.8 137.7 106.3 138.2C106.9 138.6 107.9 139.9 108.7 141.2C109.5 142.5 110.1 143.4 110.8 144.5C111.6 145.5 111.7 146.2 113 147.1C114.2 148.1 114.6 148.6 115.8 149.3C117 150 118 149.9 118.8 150.1C119.6 150.3 119.1 150.3 120.6 150.6C122.2 150.9 123.5 150.9 124.3 151.1C125.1 151.3 126.9 150.9 126.9 150.9C126.9 150.9 128.3 149.7 128.8 149C129.4 148.3 129.5 147.8 130.1 148C130.6 148.2 131.9 148 132.4 147.4C133 146.7 133.6 145.9 134.4 144.9C135.2 143.9 136.2 142.7 136.2 142.7C136.2 142.7 136.4 142.2 136.9 141.2C137.4 140.3 138 139.6 138.2 139C138.4 138.5 138.9 136.1 138.9 135.3C138.9 134.4 138.4 130.8 138.3 130.1C138.2 129.4 138 126.7 137.3 125.7C136.6 124.7 134.6 120.8 134.2 120.3C133.8 119.7 132.1 116.4 130.9 115.4C129.7 114.4 127.5 112.5 126.3 111.5C125.1 110.5 123.9 109.6 121.9 108.5C119.9 107.3 118.3 107 117.1 106C115.9 105 116 104.9 114.5 104.2C113 103.5 108.3 102.1 108.3 102.1Z" fill="#AE8300"/>
<path d="M132.2 143C133.6 141.2 133.7 141.4 134.6 139.1C135.6 136.7 136.7 134.4 136.7 134.4C136.7 134.4 137.7 133.7 138.5 132.6C138.4 131.6 138.2 130.6 138.2 130.2C138.1 129.5 137.9 126.8 137.2 125.8C136.4 124.8 134.5 120.9 134.1 120.4C133.7 119.8 132 116.5 130.8 115.5C129.6 114.5 127.4 112.6 126.2 111.6C125 110.6 123.8 109.7 121.8 108.6C119.8 107.4 118.2 107.1 117 106.1C115.8 105.1 115.9 105 114.4 104.3C114.1 104.1 113.6 103.9 113 103.7H112.8C112.8 103.7 111.6 104.6 110.5 104.3C109.3 104.1 105 102.7 102.9 101.9C100.8 101.1 99.5001 99.9 97.9001 101.3C96.3001 102.7 93.1 103.6 93.2 107.5C93.3 111.4 92.7001 112.7 93.1001 116.7C93.6001 120.7 93.8001 122.7 94.5001 126.4C95.2001 130.1 95.3001 130.5 97.8001 132.4C100.3 134.4 105.7 136.2 106.5 136.8C107.3 137.5 108.6 137.8 109.5 138.5C110.3 139.2 111.2 140.3 110.9 140.7C110.6 141.1 109.9 141.7 111.4 144C112.9 146.3 115.1 148.5 116.9 149.3C118 149.8 120.4 150.4 122.5 150.9C123.2 151 123.8 151 124.3 151.1C125.1 151.3 126.9 150.9 126.9 150.9C126.9 150.9 128.3 149.7 128.8 149C129.4 148.3 129.5 147.8 130.1 148C130.6 148.2 131.9 148 132.4 147.4C131 145 130.8 144.8 132.2 143Z" fill="#F4F4F4"/>
<path d="M100.1 102.2C100.1 102.2 95.9005 107.5 94.8005 109.1C93.7005 110.7 94.1005 117.4 95.1005 120.2C96.1005 123 97.1005 127 98.5005 128.5C99.8005 130 98.9005 128.8 100.9 130.9C102.9 132.9 101.9 133.3 104.5 134C107.1 134.7 109.5 136.2 110.1 136.6C110.7 137 111.1 136.5 112.4 138.9C113.7 141.3 114.4 141.8 115.2 142.5C116 143.2 118.6 146.1 120.2 146.7C121.8 147.3 125.2 147.8 126.9 146.8C128.6 145.9 130.4 144.1 131.7 141.6C133 139.1 133.6 136.1 133.6 136.1C133.6 136.1 134.1 134 134.1 132C134.1 130 134.2 127.6 133.1 125.8C132 124 129 119.8 128.6 119.5C128.2 119.2 124.6 115.2 123.3 113.9C122 112.7 119.8 110.7 118.8 110.1C117.9 109.6 114.7 108.7 113.8 108.7C112.9 108.7 112.4 108.5 110.8 107.7C109.2 106.9 108.4 106.2 107.4 105.4C106.4 104.6 106.7 104.6 105.1 104C103.7 103.4 101.4 100.9 100.1 102.2Z" fill="#C0A384"/>
<path d="M104.5 133.9C104.5 133.9 105.5 132.5 110.9 134.9C116.3 137.4 120.8 134.8 120.8 134.8C120.8 134.8 122.3 136 121.4 137.1C120.5 138.2 116.7 138.3 116.7 138.3C116.7 138.3 119.5 141.7 122.9 141.4C126.3 141 127.9 143.6 128.7 138C129.4 132.4 127.1 130 127.9 128.2C128.7 126.4 132.1 129.1 132.1 134.6C132 140.1 131.2 145 127.8 144.7C124.3 144.4 119.8 143.9 117.2 141.8C114.6 139.7 107.2 133.9 104.5 133.9Z" fill="#68574A"/>
<path d="M120.8 124.1C119.9 125.2 118 125.2 116.5 124.1C115 122.9 114.6 121.1 115.5 119.9C116.4 118.8 118.3 118.8 119.8 119.9C121.3 121.1 121.7 122.9 120.8 124.1Z" fill="#F4F4F4"/>
<path d="M109.8 129.5C109.4 130 108.5 130 107.7 129.4C107 128.8 106.7 127.9 107.1 127.4C107.5 126.9 108.4 126.9 109.2 127.5C109.9 128 110.2 128.9 109.8 129.5Z" fill="#F4F4F4"/>
<path d="M103.9 111.3C103.7 111.6 103.1 111.6 102.7 111.3C102.3 111 102.1 110.4 102.4 110.1C102.6 109.8 103.2 109.8 103.6 110.1C104 110.5 104.2 111 103.9 111.3Z" fill="#F4F4F4"/>
<path d="M114 125.7C112.2 121.8 101.7 122.7 99.4001 120.9C97.9001 119.7 95.7001 114.4 94.4001 110.8C94.0001 113.5 94.4001 118 95.2001 120.1C95.3001 120.5 95.5001 120.9 95.6001 121.3C97.7001 124.9 100.9 129.6 104.1 131.3C109.5 134.2 115.8 129.6 114 125.7Z" fill="#E6DAC0"/>
</g>
<defs>
<clipPath id="clip0_344_1304">
<rect width="165.7" height="174.5" fill="white"/>
</clipPath>
</defs>
</svg>
