<svg width="123" height="123" viewBox="0 0 123 123" fill="none" xmlns="http://www.w3.org/2000/svg">
<path d="M57.8275 3.64202C58.177 -0.891674 64.823 -0.89167 65.1725 3.64202C65.4803 7.63504 71.0405 8.33745 72.3316 4.54643C73.7976 0.242085 80.2348 1.89487 79.4458 6.37304C78.7509 10.3172 83.9617 12.3803 86.1551 9.02944C88.6455 5.2249 94.4694 8.42663 92.5915 12.5679C90.9376 16.2153 95.4716 19.5095 98.4294 16.8094C101.788 13.7437 106.632 18.2932 103.784 21.8373C101.275 24.9588 104.847 29.2771 108.383 27.3974C112.398 25.2632 115.96 30.8746 112.319 33.5989C109.112 35.9984 111.499 41.0694 115.391 40.1282C119.811 39.0596 121.865 45.3803 117.661 47.1136C113.959 48.6403 115.009 54.1454 119.013 54.2019C123.56 54.266 123.977 60.8988 119.474 61.5323C115.509 62.0902 115.157 67.6835 119.021 68.7341C123.409 69.9269 122.164 76.4552 117.645 75.9489C113.665 75.503 111.933 80.8331 115.415 82.8118C119.369 85.0583 116.539 91.0718 112.288 89.4577C108.544 88.036 105.541 92.768 108.421 95.5504C111.692 98.7095 107.455 103.83 103.739 101.21C100.467 98.9017 96.3811 102.738 98.4792 106.149C100.861 110.023 95.4846 113.929 92.537 110.467C89.9409 107.417 85.0298 110.117 86.2135 113.943C87.5575 118.287 81.3783 120.734 79.3844 116.647C77.6283 113.048 72.2 114.441 72.395 118.441C72.6165 122.983 66.023 123.816 65.108 119.362C64.3022 115.439 58.6978 115.439 57.892 119.362C56.977 123.816 50.3835 122.983 50.605 118.441C50.8 114.441 45.3717 113.048 43.6156 116.647C41.6217 120.734 35.4425 118.287 36.7865 113.943C37.9702 110.117 33.0591 107.417 30.463 110.467C27.5154 113.929 22.1387 110.023 24.5208 106.149C26.6189 102.738 22.5334 98.9017 19.2606 101.21C15.5445 103.83 11.3083 98.7095 14.5788 95.5504C17.4592 92.768 14.4562 88.036 10.7122 89.4577C6.46119 91.0718 3.63146 85.0583 7.58487 82.8118C11.0668 80.8331 9.33496 75.503 5.35499 75.9489C0.836124 76.4552 -0.409206 69.9269 3.97869 68.7341C7.84331 67.6835 7.49141 62.0902 3.5256 61.5323C-0.977203 60.8988 -0.559902 54.266 3.98679 54.2019C7.99125 54.1454 9.04141 48.6403 5.33894 47.1136C1.13513 45.3803 3.18885 39.0596 7.60865 40.1282C11.5014 41.0694 13.8876 35.9984 10.6811 33.5989C7.04043 30.8746 10.6015 25.2632 14.6167 27.3974C18.153 29.2771 21.7254 24.9588 19.2164 21.8373C16.3676 18.2932 21.2123 13.7437 24.5706 16.8094C27.5284 19.5095 32.0624 16.2153 30.4085 12.5679C28.5306 8.42662 34.3545 5.2249 36.8449 9.02944C39.0383 12.3803 44.2491 10.3172 43.5542 6.37304C42.7652 1.89487 49.2024 0.242088 50.6684 4.54643C51.9595 8.33746 57.5197 7.63504 57.8275 3.64202Z" fill="url(#paint0_linear_191_774)"/>
<defs>
<linearGradient id="paint0_linear_191_774" x1="61.5" y1="-44" x2="61.5" y2="205.954" gradientUnits="userSpaceOnUse">
<stop stop-color="#986B60"/>
<stop offset="0.472748" stop-color="#BD8558" stop-opacity="0.527252"/>
<stop offset="1" stop-color="#E7A14F" stop-opacity="0"/>
</linearGradient>
</defs>
</svg>
