<svg width="167" height="177" viewBox="0 0 167 177" fill="none" xmlns="http://www.w3.org/2000/svg">
<path d="M79.567 4.21635C80.3755 -0.144875 86.6245 -0.144873 87.433 4.21635L94.6099 42.9318C95.1882 46.0515 98.9946 47.2883 101.296 45.1043L129.859 18.0013C133.076 14.9482 138.132 18.6213 136.223 22.6249L119.272 58.1648C117.907 61.0286 120.259 64.2665 123.405 63.8525L162.443 58.7144C166.841 58.1356 168.772 64.0788 164.874 66.1954L130.271 84.9848C127.483 86.4989 127.483 90.5011 130.271 92.0152L164.874 110.805C168.772 112.921 166.841 118.864 162.443 118.286L123.405 113.147C120.259 112.733 117.907 115.971 119.272 118.835L136.223 154.375C138.132 158.379 133.076 162.052 129.859 158.999L101.296 131.896C98.9946 129.712 95.1882 130.948 94.6099 134.068L87.433 172.784C86.6245 177.145 80.3755 177.145 79.567 172.784L72.3901 134.068C71.8118 130.948 68.0054 129.712 65.7038 131.896L37.1412 158.999C33.9236 162.052 28.868 158.379 30.7774 154.375L47.7276 118.835C49.0935 115.971 46.741 112.733 43.5952 113.147L4.55685 118.286C0.15925 118.864 -1.77182 112.921 2.12613 110.805L36.7289 92.0152C39.5173 90.5011 39.5173 86.4989 36.7289 84.9848L2.12612 66.1954C-1.77182 64.0788 0.159241 58.1356 4.55684 58.7144L43.5952 63.8525C46.741 64.2665 49.0935 61.0286 47.7276 58.1648L30.7775 22.6248C28.868 18.6213 33.9236 14.9482 37.1412 18.0013L65.7038 45.1043C68.0054 47.2883 71.8118 46.0515 72.3901 42.9318L79.567 4.21635Z" fill="url(#paint0_linear_193_800)"/>
<defs>
<linearGradient id="paint0_linear_193_800" x1="83.5" y1="-17" x2="83.5" y2="232.954" gradientUnits="userSpaceOnUse">
<stop stop-color="#986B60"/>
<stop offset="0.472748" stop-color="#BD8558" stop-opacity="0.527252"/>
<stop offset="1" stop-color="#E7A14F" stop-opacity="0"/>
</linearGradient>
</defs>
</svg>
