<svg width="24" height="25" viewBox="0 0 24 25" fill="none" xmlns="http://www.w3.org/2000/svg">
<path d="M12.1596 11.62C12.0596 11.61 11.9396 11.61 11.8296 11.62C9.44957 11.54 7.55957 9.59 7.55957 7.19C7.55957 4.74 9.53957 2.75 11.9996 2.75C14.4496 2.75 16.4396 4.74 16.4396 7.19C16.4296 9.59 14.5396 11.54 12.1596 11.62Z" stroke="#986B60" stroke-width="1.5" stroke-linecap="round" stroke-linejoin="round"/>
<path d="M7.15973 15.31C4.73973 16.93 4.73973 19.57 7.15973 21.18C9.90973 23.02 14.4197 23.02 17.1697 21.18C19.5897 19.56 19.5897 16.92 17.1697 15.31C14.4297 13.48 9.91973 13.48 7.15973 15.31Z" stroke="#986B60" stroke-width="1.5" stroke-linecap="round" stroke-linejoin="round"/>
</svg>
