<svg width="24" height="25" viewBox="0 0 24 25" fill="none" xmlns="http://www.w3.org/2000/svg">
<path d="M9.15957 11.12C9.05957 11.11 8.93957 11.11 8.82957 11.12C6.44957 11.04 4.55957 9.09 4.55957 6.69C4.55957 4.24 6.53957 2.25 8.99957 2.25C11.4496 2.25 13.4396 4.24 13.4396 6.69C13.4296 9.09 11.5396 11.04 9.15957 11.12Z" stroke="#986B60" stroke-width="1.5" stroke-linecap="round" stroke-linejoin="round"/>
<path d="M16.4103 4.25C18.3503 4.25 19.9103 5.82 19.9103 7.75C19.9103 9.64 18.4103 11.18 16.5403 11.25C16.4603 11.24 16.3703 11.24 16.2803 11.25" stroke="#986B60" stroke-width="1.5" stroke-linecap="round" stroke-linejoin="round"/>
<path d="M4.15973 14.81C1.73973 16.43 1.73973 19.07 4.15973 20.68C6.90973 22.52 11.4197 22.52 14.1697 20.68C16.5897 19.06 16.5897 16.42 14.1697 14.81C11.4297 12.98 6.91973 12.98 4.15973 14.81Z" stroke="#986B60" stroke-width="1.5" stroke-linecap="round" stroke-linejoin="round"/>
<path d="M18.3398 20.25C19.0598 20.1 19.7398 19.81 20.2998 19.38C21.8598 18.21 21.8598 16.28 20.2998 15.11C19.7498 14.69 19.0798 14.41 18.3698 14.25" stroke="#986B60" stroke-width="1.5" stroke-linecap="round" stroke-linejoin="round"/>
</svg>
